<svg width="158" height="52" viewBox="0 0 158 52" fill="none" xmlns="http://www.w3.org/2000/svg">
<g id="Artboard-3.svg">
<path id="Vector" d="M20.1689 26.8965C21.7217 26.8965 23.4678 27.2129 25.457 27.8897C25.9727 27.8897 26.292 27.6113 26.4121 27.0957C26.4121 27.0547 26.4121 27.0166 26.4531 26.9756V26.8174C26.4531 25.7832 25.0615 25.2646 22.3164 25.2646C20.0518 25.2646 17.0693 25.6221 13.3311 26.2988C13.8877 24.4297 14.6846 22.5605 15.6777 20.7734C16.6709 18.9834 17.585 17.5127 18.458 16.3584C19.334 15.207 20.2891 14.1318 21.3203 13.1387C22.3135 12.1455 23.0312 11.4687 23.3887 11.1904C23.7461 10.9121 24.0654 10.6719 24.2617 10.5137C29.9482 11.5068 34.0029 12.0254 36.4668 12.0254C37.1436 12.0254 37.8584 11.9463 38.6143 11.8262C39.3701 11.7061 40.126 11.5479 40.9609 11.2695C41.7959 10.9912 42.4727 10.5928 42.9883 10.0361C43.5039 9.47949 43.7441 8.84375 43.7441 8.08789C43.7441 7.01562 43.1084 6.06054 41.875 5.2666C40.6035 4.46972 38.8135 4.07422 36.5459 4.07422C34.5186 4.07422 32.4121 4.43164 30.1445 5.14941C27.8799 5.86426 25.7705 6.97754 23.7842 8.44824C22.1143 8.16992 20.4033 8.01172 18.6543 8.01172C14.3184 8.01172 10.8203 8.92578 8.15723 10.7158C5.49121 12.5439 3.94141 14.6094 3.42578 16.959C3.34668 17.3164 3.30566 17.6357 3.30566 17.9932C3.30566 18.9072 3.50488 19.6631 3.94141 20.2988C4.33984 20.9346 4.77637 21.2539 5.29492 21.2539C5.57324 21.2539 5.85156 21.1338 6.08887 20.8555C6.3291 20.6152 6.4873 20.3369 6.56641 20.0586V19.9004C6.56641 19.7012 6.52539 19.584 6.4082 19.502C5.41504 18.8662 4.9375 18.0723 4.9375 17.1143C4.9375 16.9941 4.97559 16.7979 5.0166 16.5195C5.37402 14.8877 6.84766 13.3379 9.42871 11.9053C12.0127 10.4756 14.8369 9.75781 17.9775 9.75781C19.2109 9.75781 20.4824 9.91602 21.7949 10.1943L21.0391 10.7891C20.5234 11.1465 19.8057 11.7822 18.9707 12.6992C18.0977 13.6133 17.1807 14.6475 16.2285 15.8809C15.2734 17.1143 14.2803 18.6641 13.2842 20.6123C12.25 22.5605 11.374 24.5879 10.7002 26.7734L9.18848 27.0928C8.19531 27.3301 6.9209 27.6494 5.40918 28.0859C3.89746 28.5225 2.62598 28.959 1.5918 29.3984C1.47168 29.5186 1.35156 29.5977 1.31348 29.7148V29.7939C1.31348 30.0723 1.47168 30.1924 1.75 30.1924C4.17578 30.1924 6.51953 31.2676 8.78711 33.415C8.54688 35.6006 8.42969 37.748 8.42969 39.8545C8.42969 45.2217 9.34375 47.9258 11.1719 47.9258C11.8486 47.9258 12.4844 47.5684 13.1611 46.8125C13.7969 46.0566 14.1953 45.2598 14.3945 44.3867C14.5938 43.5518 14.6729 42.6787 14.6729 41.7617C14.6729 39.0957 13.6797 36.3945 11.7285 33.6113C11.8076 32.2578 12.165 30.3887 12.8037 27.9658C15.7451 27.251 18.2119 26.8936 20.1602 26.8936L20.1689 26.8965ZM36.0713 5.74121C37.7412 5.74121 39.0947 5.94043 40.0879 6.37695C41.0811 6.81348 41.5996 7.29101 41.5996 7.88867V8.04687C41.4795 8.5625 40.9229 9.00195 39.8887 9.35937C38.8164 9.71679 37.3457 9.87793 35.4766 9.87793C32.0166 9.87793 28.9141 9.55859 26.1719 8.92285C28.9141 6.81641 32.2158 5.74121 36.0713 5.74121ZM9.27344 31.9824C7.20508 30.3916 5.89258 29.5977 5.37695 29.5977C6.76855 29.1201 8.39746 28.6836 10.1875 28.3262L9.27344 31.9824ZM11.9775 36.6377C12.2559 37.2324 12.5342 37.9502 12.8125 38.8232C13.0908 39.7373 13.2109 40.5313 13.2109 41.2109C13.2109 42.3623 12.8125 43.0801 12.0596 43.3584C11.541 43.3584 11.2627 42.0869 11.2627 39.541C11.2627 37.5928 11.3418 36.3184 11.4619 35.8027C11.541 35.8027 11.7021 36.0811 11.9805 36.6377H11.9775Z" fill="url(#paint0_linear_0_16)"/>
<g id="Group">
<path id="Vector_2" d="M30.874 29.3428C30.874 25.6777 32.9043 23.9082 36.4141 23.9082C39.9238 23.9082 41.9805 25.6748 41.9805 29.3428V41.3193C41.9805 44.8789 40.1348 46.6484 36.4404 46.6484C32.7461 46.6484 30.874 44.8818 30.874 41.3193V29.3428ZM38.8662 29.8174C38.8662 27.6553 38.0488 26.5742 36.3877 26.5742C34.7266 26.5742 33.9619 27.6553 33.9619 29.8174V40.7363C33.9619 42.8984 34.7793 43.9795 36.4141 43.9795C38.0488 43.9795 38.8662 42.8984 38.8662 40.7363V29.8174Z" fill="var(--fill-0, #40454F)"/>
<path id="Vector_3" d="M53.3213 46.1973C53.1367 45.749 53.0576 44.4043 53.0576 42.2129V39.207C53.0576 37.5986 52.3457 36.8076 50.8955 36.8076H48.1533V46.1973H45.0684V24.3564H52.0586C53.5088 24.3564 54.5635 24.7783 55.1172 25.3848C55.4072 25.6748 55.6445 26.0703 55.8027 26.5713C56.1191 27.5205 56.1719 28.2588 56.1719 29.498V31.001C56.1719 31.8447 56.1455 32.3457 55.9346 33.1631C55.6445 34.2441 54.8799 35.1406 53.2715 35.457C54.3525 35.5889 55.1172 36.0898 55.5127 36.5908C55.6973 36.8281 55.8555 37.1709 55.9609 37.5928C56.1719 38.4102 56.1719 38.8584 56.1719 39.834V43.1035C56.1719 44.7383 56.251 45.7666 56.3828 46.1885H53.3242L53.3213 46.1973ZM53.0576 29.9492C53.0576 27.8135 52.5303 27.0225 50.8691 27.0225H48.1533V34.1445H50.9482C52.5303 34.1445 53.0576 33.4854 53.0576 31.7715V29.9521V29.9492Z" fill="var(--fill-0, #40454F)"/>
<path id="Vector_4" d="M69.9912 38.6533V41.3164C69.9912 44.876 68.1455 46.6455 64.4512 46.6455C60.7568 46.6455 58.8848 44.8789 58.8848 41.3164V29.3398C58.8848 25.6748 60.915 23.9053 64.4248 23.9053C67.9346 23.9053 69.9912 25.6719 69.9912 29.3398V36.1982H61.9727V40.7363C61.9727 42.8984 62.79 43.9795 64.4248 43.9795C66.0596 43.9795 66.877 42.8984 66.877 40.7363V38.6533H69.9883H69.9912ZM66.8799 33.5381V29.8174C66.8799 27.6553 66.0625 26.5742 64.4014 26.5742C62.7402 26.5742 61.9756 27.6553 61.9756 29.8174V33.5381H66.8828H66.8799Z" fill="var(--fill-0, #40454F)"/>
<path id="Vector_5" d="M78.0625 46.1973H74.9512V27.0225H71.8398V24.3594H81.2031V27.0225H78.0654V46.1973H78.0625Z" fill="var(--fill-0, #40454F)"/>
<path id="Vector_6" d="M94.5215 46.1973H91.4102V36.2803H86.5029V46.1973H83.418V24.3564H86.5029V33.6143H91.4102V24.3564H94.5215V46.1973Z" fill="var(--fill-0, #40454F)"/>
<path id="Vector_7" d="M106.076 46.1973C105.892 45.749 105.813 44.4043 105.813 42.2129V39.207C105.813 37.5986 105.101 36.8076 103.65 36.8076H100.908V46.1973H97.8232V24.3564H104.813C106.264 24.3564 107.318 24.7783 107.872 25.3848C108.162 25.6748 108.399 26.0703 108.558 26.5713C108.874 27.5205 108.927 28.2588 108.927 29.498V31.001C108.927 31.8447 108.9 32.3457 108.689 33.1631C108.399 34.2441 107.635 35.1406 106.026 35.457C107.107 35.5889 107.872 36.0898 108.268 36.5908C108.452 36.8281 108.61 37.1709 108.716 37.5928C108.927 38.4102 108.927 38.8584 108.927 39.834V43.1035C108.927 44.7383 109.006 45.7666 109.138 46.1885H106.079L106.076 46.1973ZM105.813 29.9492C105.813 27.8135 105.285 27.0225 103.624 27.0225H100.908V34.1445H103.703C105.285 34.1445 105.813 33.4854 105.813 31.7715V29.9521V29.9492Z" fill="var(--fill-0, #40454F)"/>
<path id="Vector_8" d="M122.746 38.6533V41.3164C122.746 44.876 120.9 46.6455 117.206 46.6455C113.512 46.6455 111.64 44.8789 111.64 41.3164V29.3398C111.64 25.6748 113.67 23.9053 117.18 23.9053C120.689 23.9053 122.746 25.6719 122.746 29.3398V36.1982H114.728V40.7363C114.728 42.8984 115.545 43.9795 117.18 43.9795C118.814 43.9795 119.632 42.8984 119.632 40.7363V38.6533H122.743H122.746ZM119.635 33.5381V29.8174C119.635 27.6553 118.817 26.5742 117.156 26.5742C115.495 26.5742 114.73 27.6553 114.73 29.8174V33.5381H119.638H119.635Z" fill="var(--fill-0, #40454F)"/>
<path id="Vector_9" d="M133.639 46.1973C133.56 45.96 133.48 45.459 133.428 44.6943C132.531 45.96 131.318 46.5928 129.789 46.5928C127.179 46.5928 125.33 44.7471 125.33 41.5537V38.0996C125.33 37.2559 125.383 36.5439 125.62 35.9902C125.831 35.1201 126.49 34.54 127.149 34.1445C127.492 33.8545 128.494 33.5908 129.021 33.459C129.312 33.3799 129.733 33.3008 130.287 33.2217C130.841 33.1426 131.315 33.0635 131.685 33.0107C132.054 32.958 132.607 32.8789 133.319 32.7998V29.6357C133.319 27.6055 132.502 26.5771 130.867 26.5771C129.232 26.5771 128.415 27.6055 128.415 29.6621V31.5605H125.33V29.2402C125.33 25.7334 127.387 23.9111 130.87 23.9111C134.354 23.9111 136.437 25.7041 136.437 29.2666V43.959C136.437 45.0928 136.516 45.8311 136.647 46.2002H133.642L133.639 46.1973ZM133.322 35.542C131.371 35.7266 130.053 36.0166 129.391 36.4385C128.731 36.8604 128.415 37.5986 128.415 38.6797V41.0527C128.415 42.7666 129.127 43.9795 130.735 43.9795C132.423 43.9795 133.293 42.6348 133.319 39.916V35.5361L133.322 35.542Z" fill="var(--fill-0, #40454F)"/>
<path id="Vector_10" d="M139.574 46.1973V24.3564H146.564C148.041 24.3564 149.096 24.8047 149.649 25.4111C149.939 25.7012 150.177 26.123 150.309 26.6504C150.625 27.6787 150.678 28.4434 150.678 29.8936V40.6543C150.678 42.1045 150.625 42.8691 150.309 43.9238C149.913 45.374 148.832 46.1123 146.564 46.1914H139.574V46.1973ZM147.566 30.3447C147.566 29.0791 147.408 28.209 147.118 27.7344C146.828 27.2598 146.248 27.0225 145.325 27.0225H142.662V43.5342H145.325C146.248 43.5342 146.828 43.2969 147.118 42.8223C147.408 42.3477 147.566 41.4775 147.566 40.2119V30.3477V30.3447Z" fill="var(--fill-0, #40454F)"/>
</g>
</g>
<defs>
<linearGradient id="paint0_linear_0_16" x1="22.5288" y1="4.07422" x2="22.5288" y2="47.9258" gradientUnits="userSpaceOnUse">
<stop stop-color="#DF5311"/>
<stop offset="1" stop-color="#FB7535"/>
</linearGradient>
</defs>
</svg>
