<svg width="18" height="18" viewBox="0 0 18 18" fill="none" xmlns="http://www.w3.org/2000/svg">
<path d="M15.75 6.18745H12.3328L12.9284 2.91299C12.9523 2.7674 12.918 2.61824 12.833 2.49766C12.748 2.37707 12.619 2.29472 12.4739 2.26834C12.3287 2.24196 12.179 2.27368 12.057 2.35665C11.935 2.43962 11.8505 2.5672 11.8216 2.7119L11.1888 6.18745H7.83281L8.42836 2.91299C8.45228 2.7674 8.41805 2.61824 8.33303 2.49766C8.24802 2.37707 8.11903 2.29472 7.97387 2.26834C7.8287 2.24196 7.67898 2.27368 7.55698 2.35665C7.43498 2.43962 7.35046 2.5672 7.32164 2.7119L6.68953 6.18745H3.375C3.22582 6.18745 3.08274 6.24671 2.97725 6.3522C2.87176 6.45769 2.8125 6.60076 2.8125 6.74995C2.8125 6.89913 2.87176 7.0422 2.97725 7.14769C3.08274 7.25318 3.22582 7.31245 3.375 7.31245H6.48492L5.87109 10.6874H2.25C2.10082 10.6874 1.95774 10.7467 1.85225 10.8522C1.74676 10.9577 1.6875 11.1008 1.6875 11.2499C1.6875 11.3991 1.74676 11.5422 1.85225 11.6477C1.95774 11.7532 2.10082 11.8124 2.25 11.8124H5.66719L5.07164 15.0869C5.045 15.2337 5.07773 15.385 5.16265 15.5076C5.24756 15.6302 5.3777 15.7141 5.52445 15.7408C5.55762 15.7469 5.59127 15.75 5.625 15.7499C5.75661 15.7498 5.88399 15.7034 5.98497 15.619C6.08595 15.5346 6.15413 15.4175 6.17766 15.288L6.81047 11.8124H10.1672L9.57164 15.0869C9.545 15.2337 9.57773 15.385 9.66265 15.5076C9.74756 15.6302 9.8777 15.7141 10.0245 15.7408C10.0576 15.7469 10.0913 15.75 10.125 15.7499C10.2566 15.7498 10.384 15.7034 10.485 15.619C10.5859 15.5346 10.6541 15.4175 10.6777 15.288L11.3105 11.8124H14.625C14.7742 11.8124 14.9173 11.7532 15.0227 11.6477C15.1282 11.5422 15.1875 11.3991 15.1875 11.2499C15.1875 11.1008 15.1282 10.9577 15.0227 10.8522C14.9173 10.7467 14.7742 10.6874 14.625 10.6874H11.5151L12.1289 7.31245H15.75C15.8992 7.31245 16.0423 7.25318 16.1477 7.14769C16.2532 7.0422 16.3125 6.89913 16.3125 6.74995C16.3125 6.60076 16.2532 6.45769 16.1477 6.3522C16.0423 6.24671 15.8992 6.18745 15.75 6.18745ZM10.3711 10.6874H7.01508L7.62891 7.31245H10.9849L10.3711 10.6874Z" fill="currentColor"/>
</svg>

