<svg width="16" height="16" viewBox="0 0 16 16" fill="none" xmlns="http://www.w3.org/2000/svg">
  <path
    d="M7.35403 10.6462C7.40052 10.6926 7.4374 10.7477 7.46256 10.8084C7.48772 10.8691 7.50067 10.9342 7.50067 10.9999C7.50067 11.0656 7.48772 11.1307 7.46256 11.1914C7.4374 11.2521 7.40052 11.3072 7.35403 11.3537L5.35403 13.3537C5.30759 13.4001 5.25245 13.437 5.19175 13.4622C5.13105 13.4873 5.06599 13.5003 5.00028 13.5003C4.93457 13.5003 4.86951 13.4873 4.80881 13.4622C4.74811 13.437 4.69296 13.4001 4.64653 13.3537L2.64653 11.3537C2.60007 11.3072 2.56322 11.252 2.53808 11.1914C2.51294 11.1307 2.5 11.0656 2.5 10.9999C2.5 10.9342 2.51294 10.8692 2.53808 10.8085C2.56322 10.7478 2.60007 10.6926 2.64653 10.6462C2.74035 10.5523 2.8676 10.4996 3.00028 10.4996C3.06598 10.4996 3.13103 10.5126 3.19173 10.5377C3.25242 10.5628 3.30757 10.5997 3.35403 10.6462L4.50028 11.793V2.99991C4.50028 2.8673 4.55296 2.74012 4.64672 2.64635C4.74049 2.55258 4.86767 2.49991 5.00028 2.49991C5.13289 2.49991 5.26006 2.55258 5.35383 2.64635C5.4476 2.74012 5.50028 2.8673 5.50028 2.99991V11.793L6.64653 10.6462C6.69296 10.5997 6.74811 10.5628 6.80881 10.5376C6.86951 10.5125 6.93457 10.4995 7.00028 10.4995C7.06599 10.4995 7.13105 10.5125 7.19175 10.5376C7.25245 10.5628 7.30759 10.5997 7.35403 10.6462Z"
    fill="currentColor"
  />
</svg>

