<svg width="18" height="18" viewBox="0 0 18 18" fill="none" xmlns="http://www.w3.org/2000/svg">
<path d="M6.75 2.8125C6.89918 2.81256 7.04197 2.87205 7.14746 2.97754L12.7725 8.60254C12.8246 8.65463 12.8662 8.71613 12.8945 8.78418C12.9228 8.85245 12.9375 8.9261 12.9375 9C12.9375 9.07392 12.9228 9.14753 12.8945 9.21582C12.8662 9.28394 12.8247 9.3463 12.7725 9.39844L7.14746 15.0234C7.09527 15.0755 7.03298 15.1173 6.96484 15.1455C6.89675 15.1736 6.82368 15.1875 6.75 15.1875C6.67609 15.1875 6.60246 15.1738 6.53418 15.1455C6.46594 15.1172 6.4038 15.0757 6.35156 15.0234C6.29936 14.9712 6.25777 14.909 6.22949 14.8408C6.20121 14.7725 6.18652 14.6989 6.18652 14.625C6.18653 14.5513 6.20136 14.4783 6.22949 14.4102C6.25771 14.342 6.29946 14.2797 6.35156 14.2275L11.5791 9L6.35156 3.77344C6.24601 3.66789 6.18652 3.52427 6.18652 3.375C6.18654 3.22592 6.24624 3.08304 6.35156 2.97754C6.45711 2.87199 6.60073 2.8125 6.75 2.8125Z" fill="currentColor"/>
</svg>


