<svg width="16" height="16" viewBox="0 0 16 16" fill="none" xmlns="http://www.w3.org/2000/svg">
<path d="M8 1.5C9.72327 1.50188 11.3752 2.18771 12.5938 3.40625C13.8123 4.62483 14.4982 6.2767 14.5 8C14.5 9.28558 14.1185 10.5424 13.4043 11.6113C12.6901 12.6801 11.6749 13.5129 10.4873 14.0049C9.29958 14.4969 7.99232 14.6258 6.73145 14.375C5.47072 14.1242 4.31228 13.5056 3.40332 12.5967C2.4944 11.6878 1.87587 10.5292 1.625 9.26855C1.37422 8.00777 1.50226 6.70034 1.99414 5.5127C2.4861 4.325 3.31978 3.30993 4.38867 2.5957C5.45759 1.88147 6.71442 1.5 8 1.5ZM10.1045 2.91895C9.0995 2.50266 7.99365 2.39325 6.92676 2.60547C5.85986 2.81769 4.87954 3.34214 4.11035 4.11133C3.34143 4.8804 2.81768 5.86013 2.60547 6.92676C2.39328 7.99351 2.50182 9.0996 2.91797 10.1045C3.33425 11.1095 4.03987 11.9689 4.94434 12.5732C5.84876 13.1775 6.91228 13.5 8 13.5C9.45793 13.4983 10.8557 12.9185 11.8867 11.8877C12.9178 10.8566 13.4983 9.45818 13.5 8C13.5 6.91226 13.1775 5.84877 12.5732 4.94434C11.9689 4.03988 11.1095 3.33523 10.1045 2.91895ZM8 10.5C8.19884 10.5001 8.38967 10.5791 8.53027 10.7197C8.67086 10.8604 8.75 11.0511 8.75 11.25C8.75 11.3983 8.70546 11.5437 8.62305 11.667C8.54067 11.7901 8.42397 11.8866 8.28711 11.9434C8.15006 12.0001 7.999 12.0143 7.85352 11.9854C7.70808 11.9564 7.5746 11.8851 7.46973 11.7803C7.3649 11.6754 7.29362 11.5419 7.26465 11.3965C7.23571 11.251 7.24988 11.0999 7.30664 10.9629C7.36341 10.8258 7.45967 10.7084 7.58301 10.626C7.70632 10.5436 7.85171 10.5 8 10.5ZM8 4.5C9.37865 4.5001 10.5 5.50944 10.5 6.75C10.5 7.83619 9.6399 8.74564 8.5 8.95508V9C8.5 9.13256 8.44722 9.25976 8.35352 9.35352C8.2598 9.44723 8.13253 9.49994 8 9.5C7.86744 9.5 7.74024 9.44722 7.64648 9.35352C7.55272 9.25975 7.5 9.13261 7.5 9V8.5C7.5 8.36739 7.55272 8.24025 7.64648 8.14648C7.74024 8.05278 7.86744 8 8 8C8.82678 7.9999 9.5 7.43744 9.5 6.75C9.5 6.06256 8.82678 5.5001 8 5.5C7.17313 5.5 6.5 6.0625 6.5 6.75V7C6.5 7.13256 6.44722 7.25976 6.35352 7.35352C6.2598 7.44723 6.13253 7.49994 6 7.5C5.86744 7.5 5.74024 7.44722 5.64648 7.35352C5.55272 7.25975 5.5 7.13261 5.5 7V6.75C5.5 5.50938 6.62125 4.5 8 4.5Z" fill="currentColor"/>
</svg>
