<svg width="18" height="18" viewBox="0 0 18 18" fill="none" xmlns="http://www.w3.org/2000/svg">
<path d="M14.0625 2.25C14.1669 2.24997 14.2695 2.27913 14.3584 2.33398C14.4471 2.3888 14.5187 2.46732 14.5654 2.56055L15.6904 4.81055C15.7292 4.88878 15.7499 4.97519 15.75 5.0625V14.625C15.75 14.9234 15.6309 15.2099 15.4199 15.4209C15.209 15.6316 14.9231 15.7499 14.625 15.75H3.375C3.07667 15.75 2.79007 15.6318 2.5791 15.4209C2.36812 15.2099 2.25 14.9234 2.25 14.625V5.0625C2.25009 4.97519 2.26983 4.88878 2.30859 4.81055L3.43359 2.56055C3.48036 2.46715 3.55272 2.38885 3.6416 2.33398C3.7305 2.27914 3.83305 2.24993 3.9375 2.25H14.0625ZM3.375 5.625V14.625H14.625V5.625H3.375ZM9 6.75C9.1491 6.75006 9.29203 6.8096 9.39746 6.91504C9.50288 7.02051 9.56248 7.16338 9.5625 7.3125V11.5801L10.8516 10.29C10.9037 10.2378 10.966 10.1963 11.0342 10.168C11.1025 10.1397 11.1761 10.125 11.25 10.125C11.3238 10.125 11.3967 10.1397 11.4648 10.168C11.5331 10.1963 11.5952 10.2377 11.6475 10.29C11.6996 10.3421 11.7412 10.4036 11.7695 10.4717C11.7978 10.5399 11.8125 10.6136 11.8125 10.6875C11.8125 10.7614 11.7978 10.835 11.7695 10.9033C11.7412 10.9714 11.6997 11.0338 11.6475 11.0859L9.39746 13.3359C9.34529 13.3881 9.28298 13.4298 9.21484 13.458C9.14675 13.4862 9.07369 13.5009 9 13.501C8.92608 13.501 8.85247 13.4863 8.78418 13.458C8.71594 13.4297 8.65378 13.3882 8.60156 13.3359L6.35156 11.0859C6.24601 10.9804 6.18652 10.8368 6.18652 10.6875C6.18654 10.5384 6.24624 10.3955 6.35156 10.29C6.45711 10.1845 6.60073 10.125 6.75 10.125C6.89918 10.1251 7.04197 10.1845 7.14746 10.29L8.4375 11.5801V7.3125C8.43752 7.1635 8.4963 7.02048 8.60156 6.91504C8.70705 6.80955 8.85082 6.75 9 6.75ZM4.28418 3.375L3.72168 4.5H14.2773L13.7148 3.375H4.28418Z" fill="currentColor"/>
</svg>





