<svg width="18" height="18" viewBox="0 0 18 18" fill="none" xmlns="http://www.w3.org/2000/svg">
<path d="M14.625 2.8125H3.375C3.07663 2.8125 2.79048 2.93103 2.5795 3.142C2.36853 3.35298 2.25 3.63913 2.25 3.9375V12.375C2.25 12.6734 2.36853 12.9595 2.5795 13.1705C2.79048 13.3815 3.07663 13.5 3.375 13.5H5.89453L8.60156 15.5508C8.71875 15.6328 8.85938 15.6797 9 15.6797C9.14062 15.6797 9.28125 15.6328 9.39844 15.5508L12.1055 13.5H14.625C14.9234 13.5 15.2095 13.3815 15.4205 13.1705C15.6315 12.9595 15.75 12.6734 15.75 12.375V3.9375C15.75 3.63913 15.6315 3.35298 15.4205 3.142C15.2095 2.93103 14.9234 2.8125 14.625 2.8125ZM14.625 12.375H11.8828L9 14.3438L6.11719 12.375H3.375V3.9375H14.625V12.375Z" fill="currentColor"/>
</svg>
