<svg width="16" height="16" viewBox="0 0 16 16" fill="none" xmlns="http://www.w3.org/2000/svg">
<path d="M15 3.49944V6.49944C15 6.63205 14.9473 6.75922 14.8535 6.85299C14.7598 6.94676 14.6326 6.99944 14.5 6.99944H11.5C11.3674 6.99944 11.2402 6.94676 11.1464 6.85299C11.0527 6.75922 11 6.63205 11 6.49944C11 6.36683 11.0527 6.23965 11.1464 6.14588C11.2402 6.05212 11.3674 5.99944 11.5 5.99944H13.2125L11.5506 4.47694L11.535 4.46194C10.84 3.76724 9.95579 3.29272 8.99272 3.09765C8.02964 2.90258 7.03044 2.99562 6.11993 3.36513C5.20942 3.73463 4.42797 4.36424 3.87321 5.17529C3.31844 5.98634 3.01495 6.94287 3.00066 7.9254C2.98636 8.90793 3.26189 9.87289 3.79283 10.6997C4.32376 11.5266 5.08656 12.1787 5.98594 12.5745C6.88531 12.9703 7.88138 13.0924 8.84973 12.9254C9.81807 12.7585 10.7157 12.3099 11.4306 11.6357C11.527 11.5445 11.6557 11.4954 11.7883 11.4991C11.9209 11.5028 12.0466 11.559 12.1378 11.6554C12.229 11.7518 12.2781 11.8804 12.2744 12.013C12.2707 12.1457 12.2145 12.2714 12.1181 12.3626C11.0065 13.4168 9.53197 14.0029 7.99999 13.9994H7.91749C6.93483 13.986 5.97052 13.7313 5.10931 13.2579C4.2481 12.7845 3.51636 12.1068 2.97841 11.2843C2.44045 10.4619 2.11276 9.51991 2.02412 8.54116C1.93548 7.56241 2.08862 6.57687 2.47006 5.67116C2.85151 4.76545 3.44959 3.96731 4.21174 3.34687C4.97389 2.72644 5.87677 2.30271 6.84103 2.11293C7.80528 1.92316 8.8014 1.97314 9.74181 2.25849C10.6822 2.54384 11.5382 3.05582 12.2344 3.74944L14 5.36194V3.49944C14 3.36683 14.0527 3.23965 14.1464 3.14588C14.2402 3.05212 14.3674 2.99944 14.5 2.99944C14.6326 2.99944 14.7598 3.05212 14.8535 3.14588C14.9473 3.23965 15 3.36683 15 3.49944Z" fill="currentColor"/>
</svg>
