<svg width="18" height="18" viewBox="0 0 18 18" fill="none" xmlns="http://www.w3.org/2000/svg">
<path d="M11.25 6.1875C9.00703 6.1875 5.625 7.05469 5.625 8.4375V9.5625C5.625 10.9453 9.00703 11.8125 11.25 11.8125C13.493 11.8125 16.875 10.9453 16.875 9.5625V8.4375C16.875 7.05469 13.493 6.1875 11.25 6.1875ZM15.75 9.5625C15.75 10.0547 13.7109 10.6875 11.25 10.6875C8.78906 10.6875 6.75 10.0547 6.75 9.5625V9.10547C7.73437 9.66797 9.64687 10.125 11.25 10.125C12.8531 10.125 14.7656 9.66797 15.75 9.10547V9.5625ZM11.25 7.3125C13.7109 7.3125 15.75 7.94531 15.75 8.4375C15.75 8.92969 13.7109 9.5625 11.25 9.5625C8.78906 9.5625 6.75 8.92969 6.75 8.4375C6.75 7.94531 8.78906 7.3125 11.25 7.3125ZM6.75 11.8125C6.75 12.3047 4.71094 12.9375 2.25 12.9375C-0.210937 12.9375 -2.25 12.3047 -2.25 11.8125" fill="currentColor"/>
<path d="M6.75 3.375C4.50703 3.375 1.125 4.24219 1.125 5.625V12.375C1.125 13.7578 4.50703 14.625 6.75 14.625C7.59375 14.625 8.55703 14.4844 9.38672 14.2266C9.52734 14.1797 9.63281 14.0742 9.67969 13.9336C9.72656 13.793 9.70312 13.6406 9.61523 13.5234C9.52734 13.4062 9.39258 13.3359 9.24609 13.3359C9.19336 13.3359 9.14062 13.3477 9.09375 13.3594C8.38477 13.582 7.52344 13.7109 6.75 13.7109C4.28906 13.7109 2.25 13.0781 2.25 12.5859V12.1055C3.23437 12.668 5.14687 13.125 6.75 13.125C7.24219 13.125 7.73438 13.0898 8.21484 13.0195C8.39062 12.9961 8.53125 12.8906 8.60156 12.7383C8.67187 12.5859 8.66016 12.4102 8.57812 12.2695C8.49609 12.1289 8.34961 12.0352 8.18555 12.0234C7.71094 12.0938 7.23047 12.1289 6.75 12.1289C4.28906 12.1289 2.25 11.4961 2.25 11.0039V10.5234C3.23437 11.0859 5.14687 11.543 6.75 11.543C7.03125 11.543 7.3125 11.5312 7.59375 11.5078C7.76953 11.4961 7.92188 11.3906 7.99219 11.2383C8.0625 11.0859 8.05078 10.9102 7.96875 10.7695C7.88672 10.6289 7.74023 10.5352 7.57617 10.5234C7.30664 10.5469 7.02539 10.5586 6.75 10.5586C4.28906 10.5586 2.25 9.92578 2.25 9.43359V8.95312C3.23437 9.51562 5.14687 9.97266 6.75 9.97266C7.03125 9.97266 7.3125 9.96094 7.59375 9.9375C7.76953 9.92578 7.92188 9.82031 7.99219 9.66797C8.0625 9.51562 8.05078 9.33984 7.96875 9.19922C7.88672 9.05859 7.74023 8.96484 7.57617 8.95312C7.30664 8.97656 7.02539 8.98828 6.75 8.98828C4.28906 8.98828 2.25 8.35547 2.25 7.86328V7.38281C3.23437 7.94531 5.14687 8.40234 6.75 8.40234C7.14844 8.40234 7.55859 8.37891 7.95703 8.33203C8.13281 8.30859 8.28516 8.20312 8.35547 8.05078C8.42578 7.89844 8.41406 7.72266 8.33203 7.58203C8.25 7.44141 8.10352 7.34766 7.93945 7.33594C7.55273 7.38281 7.14844 7.40625 6.75 7.40625C4.28906 7.40625 2.25 6.77344 2.25 6.28125C2.25 5.78906 4.28906 5.15625 6.75 5.15625C9.21094 5.15625 11.25 5.78906 11.25 6.28125" fill="currentColor"/>
</svg>
