<svg width="6" height="10" viewBox="0 0 6 10" fill="none" xmlns="http://www.w3.org/2000/svg">
<path fill-rule="evenodd" clip-rule="evenodd" d="M0.74994 8.5C0.948795 8.50004 1.1396 8.57911 1.28021 8.71973C1.42082 8.86037 1.49994 9.05112 1.49994 9.25C1.49994 9.39834 1.4554 9.54366 1.37299 9.66699C1.2906 9.79012 1.17392 9.88665 1.03705 9.94336C0.900005 10.0001 0.748941 10.0143 0.603456 9.98535C0.458027 9.95641 0.324531 9.88511 0.219666 9.78027C0.114834 9.67544 0.0435576 9.54188 0.0145884 9.39648C-0.014349 9.25101 -0.00017786 9.09993 0.0565805 8.96289C0.113346 8.82585 0.209611 8.70839 0.332948 8.62598C0.456266 8.5436 0.601638 8.5 0.74994 8.5ZM5.24994 8.5C5.4488 8.50004 5.6396 8.57911 5.78021 8.71973C5.92082 8.86037 5.99994 9.05112 5.99994 9.25C5.99994 9.39834 5.9554 9.54366 5.87299 9.66699C5.7906 9.79012 5.67392 9.88665 5.53705 9.94336C5.4 10.0001 5.24894 10.0143 5.10346 9.98535C4.95803 9.95641 4.82453 9.88511 4.71967 9.78027C4.61483 9.67544 4.54356 9.54188 4.51459 9.39648C4.48565 9.25101 4.49982 9.09993 4.55658 8.96289C4.61335 8.82585 4.70961 8.70839 4.83295 8.62598C4.95627 8.5436 5.10164 8.5 5.24994 8.5ZM0.74994 4.25C0.948795 4.25004 1.1396 4.32911 1.28021 4.46973C1.42082 4.61037 1.49994 4.80113 1.49994 5C1.49994 5.14834 1.4554 5.29366 1.37299 5.41699C1.2906 5.54012 1.17392 5.63665 1.03705 5.69336C0.900005 5.75012 0.748941 5.76429 0.603456 5.73535C0.458027 5.70641 0.324531 5.63511 0.219666 5.53027C0.114834 5.42544 0.0435576 5.29188 0.0145884 5.14648C-0.014349 5.00101 -0.00017786 4.84993 0.0565805 4.71289C0.113346 4.57585 0.209611 4.45839 0.332948 4.37598C0.456266 4.2936 0.601638 4.25 0.74994 4.25ZM5.24994 4.25C5.4488 4.25004 5.6396 4.32911 5.78021 4.46973C5.92082 4.61037 5.99994 4.80113 5.99994 5C5.99994 5.14834 5.9554 5.29366 5.87299 5.41699C5.7906 5.54012 5.67392 5.63665 5.53705 5.69336C5.4 5.75012 5.24894 5.76429 5.10346 5.73535C4.95803 5.70641 4.82453 5.63511 4.71967 5.53027C4.61483 5.42544 4.54356 5.29188 4.51459 5.14648C4.48565 5.00101 4.49982 4.84993 4.55658 4.71289C4.61335 4.57585 4.70961 4.45839 4.83295 4.37598C4.95627 4.2936 5.10164 4.25 5.24994 4.25ZM5.39642 0.0146484C5.54177 0.0436332 5.67541 0.114923 5.78021 0.219727C5.88502 0.324562 5.95634 0.458134 5.98529 0.603516C6.01423 0.749002 5.99909 0.900065 5.94232 1.03711C5.88557 1.17401 5.79014 1.29166 5.66693 1.37402C5.54364 1.45641 5.39822 1.49997 5.24994 1.5C5.05106 1.5 4.86031 1.42088 4.71967 1.28027C4.57901 1.13962 4.49994 0.948912 4.49994 0.75C4.49994 0.601664 4.54351 0.456345 4.62592 0.333008C4.70832 0.209717 4.82582 0.113392 4.96283 0.0566406C5.09982 -5.34058e-05 5.25101 -0.0142758 5.39642 0.0146484ZM0.74994 0C0.948795 4.17233e-05 1.1396 0.0791113 1.28021 0.219727C1.42082 0.360371 1.49994 0.551125 1.49994 0.75C1.49994 0.898336 1.4554 1.04366 1.37299 1.16699C1.2906 1.29012 1.17392 1.38665 1.03705 1.44336C0.900005 1.50012 0.748941 1.51429 0.603456 1.48535C0.458027 1.45641 0.324531 1.38511 0.219666 1.28027C0.114834 1.17544 0.0435576 1.04188 0.0145884 0.896484C-0.014349 0.751006 -0.00017786 0.59993 0.0565805 0.462891C0.113346 0.325846 0.209611 0.208388 0.332948 0.125977C0.456266 0.0436022 0.601638 0 0.74994 0Z" fill="currentColor"/>
</svg>

