<svg width="16" height="16" viewBox="0 0 16 16" fill="none" xmlns="http://www.w3.org/2000/svg">
<path d="M14.3538 3.64664L12.3538 1.64664C12.3073 1.60016 12.2522 1.56328 12.1915 1.53811C12.1308 1.51295 12.0657 1.5 12 1.5C11.9343 1.5 11.8692 1.51295 11.8085 1.53811C11.7478 1.56328 11.6927 1.60016 11.6462 1.64664L5.64625 7.64664C5.59983 7.69311 5.56303 7.74827 5.53793 7.80897C5.51284 7.86967 5.49995 7.93471 5.5 8.00039V10.0004C5.5 10.133 5.55268 10.2602 5.64645 10.3539C5.74021 10.4477 5.86739 10.5004 6 10.5004H8C8.06568 10.5004 8.13073 10.4876 8.19143 10.4625C8.25212 10.4374 8.30728 10.4006 8.35375 10.3541L14.3538 4.35414C14.4002 4.30771 14.4371 4.25256 14.4623 4.19186C14.4874 4.13116 14.5004 4.0661 14.5004 4.00039C14.5004 3.93469 14.4874 3.86962 14.4623 3.80892C14.4371 3.74822 14.4002 3.69308 14.3538 3.64664ZM7.79313 9.50039H6.5V8.20727L10.5 4.20727L11.7931 5.50039L7.79313 9.50039ZM12.5 4.79352L11.2069 3.50039L12 2.70727L13.2931 4.00039L12.5 4.79352ZM14 8.00039V13.0004C14 13.2656 13.8946 13.52 13.7071 13.7075C13.5196 13.895 13.2652 14.0004 13 14.0004H3C2.73478 14.0004 2.48043 13.895 2.29289 13.7075C2.10536 13.52 2 13.2656 2 13.0004V3.00039C2 2.73518 2.10536 2.48082 2.29289 2.29329C2.48043 2.10575 2.73478 2.00039 3 2.00039H8C8.13261 2.00039 8.25979 2.05307 8.35355 2.14684C8.44732 2.24061 8.5 2.36779 8.5 2.50039C8.5 2.633 8.44732 2.76018 8.35355 2.85395C8.25979 2.94771 8.13261 3.00039 8 3.00039H3V13.0004H13V8.00039C13 7.86778 13.0527 7.74061 13.1464 7.64684C13.2402 7.55307 13.3674 7.50039 13.5 7.50039C13.6326 7.50039 13.7598 7.55307 13.8536 7.64684C13.9473 7.74061 14 7.86778 14 8.00039Z" fill="currentColor"/>
</svg>
