<svg width="18" height="18" viewBox="0 0 18 18" fill="none" xmlns="http://www.w3.org/2000/svg">
<path d="M14.625 2.25H5.625C5.32663 2.25 5.04048 2.36853 4.8295 2.5795C4.61853 2.79048 4.5 3.07663 4.5 3.375V7.875H5.625V3.375H14.625V14.625H5.625V13.5H4.5V14.625C4.5 14.9234 4.61853 15.2095 4.8295 15.4205C5.04048 15.6315 5.32663 15.75 5.625 15.75H14.625C14.9234 15.75 15.2095 15.6315 15.4205 15.4205C15.6315 15.2095 15.75 14.9234 15.75 14.625V3.375C15.75 3.07663 15.6315 2.79048 15.4205 2.5795C15.2095 2.36853 14.9234 2.25 14.625 2.25Z" fill="currentColor"/>
<path d="M8.4375 9H2.8125C2.51413 9 2.22798 9.11853 2.017 9.3295C1.80603 9.54048 1.6875 9.82663 1.6875 10.125V12.375C1.6875 12.6734 1.80603 12.9595 2.017 13.1705C2.22798 13.3815 2.51413 13.5 2.8125 13.5H8.4375C8.73587 13.5 9.02202 13.3815 9.233 13.1705C9.44397 12.9595 9.5625 12.6734 9.5625 12.375V10.125C9.5625 9.82663 9.44397 9.54048 9.233 9.3295C9.02202 9.11853 8.73587 9 8.4375 9ZM8.4375 12.375H2.8125V10.125H8.4375V12.375ZM7.875 9V8.4375C7.875 7.84076 7.63795 7.26847 7.21599 6.84651C6.79403 6.42455 6.22174 6.1875 5.625 6.1875C5.02826 6.1875 4.45597 6.42455 4.03401 6.84651C3.61205 7.26847 3.375 7.84076 3.375 8.4375V9H4.5V8.4375C4.5 8.13913 4.61853 7.85298 4.8295 7.642C5.04048 7.43103 5.32663 7.3125 5.625 7.3125C5.92337 7.3125 6.20952 7.43103 6.4205 7.642C6.63147 7.85298 6.75 8.13913 6.75 8.4375V9H7.875Z" fill="currentColor"/>
</svg>
