<svg width="18" height="18" viewBox="0 0 18 18" fill="none" xmlns="http://www.w3.org/2000/svg">
<path d="M14.625 2.25H5.625C5.32663 2.25 5.04048 2.36853 4.8295 2.5795C4.61853 2.79048 4.5 3.07663 4.5 3.375V14.625C4.5 14.9234 4.61853 15.2095 4.8295 15.4205C5.04048 15.6315 5.32663 15.75 5.625 15.75H14.625C14.9234 15.75 15.2095 15.6315 15.4205 15.4205C15.6315 15.2095 15.75 14.9234 15.75 14.625V3.375C15.75 3.07663 15.6315 2.79048 15.4205 2.5795C15.2095 2.36853 14.9234 2.25 14.625 2.25ZM14.625 14.625H5.625V3.375H14.625V14.625ZM7.3125 7.3125H12.9375C13.0867 7.3125 13.2298 7.25324 13.3352 7.14775C13.4407 7.04226 13.5 6.89918 13.5 6.75C13.5 6.60082 13.4407 6.45774 13.3352 6.35225C13.2298 6.24676 13.0867 6.1875 12.9375 6.1875H7.3125C7.16332 6.1875 7.02024 6.24676 6.91475 6.35225C6.80926 6.45774 6.75 6.60082 6.75 6.75C6.75 6.89918 6.80926 7.04226 6.91475 7.14775C7.02024 7.25324 7.16332 7.3125 7.3125 7.3125ZM7.3125 9.5625H12.9375C13.0867 9.5625 13.2298 9.50324 13.3352 9.39775C13.4407 9.29226 13.5 9.14918 13.5 9C13.5 8.85082 13.4407 8.70774 13.3352 8.60225C13.2298 8.49676 13.0867 8.4375 12.9375 8.4375H7.3125C7.16332 8.4375 7.02024 8.49676 6.91475 8.60225C6.80926 8.70774 6.75 8.85082 6.75 9C6.75 9.14918 6.80926 9.29226 6.91475 9.39775C7.02024 9.50324 7.16332 9.5625 7.3125 9.5625ZM7.3125 11.8125H10.6875C10.8367 11.8125 10.9798 11.7532 11.0852 11.6478C11.1907 11.5423 11.25 11.3992 11.25 11.25C11.25 11.1008 11.1907 10.9577 11.0852 10.8523C10.9798 10.7468 10.8367 10.6875 10.6875 10.6875H7.3125C7.16332 10.6875 7.02024 10.7468 6.91475 10.8523C6.80926 10.9577 6.75 11.1008 6.75 11.25C6.75 11.3992 6.80926 11.5423 6.91475 11.6478C7.02024 11.7532 7.16332 11.8125 7.3125 11.8125Z" fill="currentColor"/>
</svg>
