<svg width="13" height="12" viewBox="0 0 13 12" fill="none" xmlns="http://www.w3.org/2000/svg">
<path d="M6.50037 2.99697V5.71384L8.75787 7.06822C8.87158 7.13651 8.95351 7.24718 8.98563 7.37588C9.01774 7.50457 8.99742 7.64076 8.92912 7.75447C8.86083 7.86818 8.75016 7.95011 8.62147 7.98222C8.49277 8.01434 8.35659 7.99401 8.24287 7.92572L5.74287 6.42572C5.66888 6.38127 5.60766 6.31841 5.56516 6.24328C5.52267 6.16815 5.50035 6.08329 5.50037 5.99697V2.99697C5.50037 2.86436 5.55305 2.73718 5.64682 2.64342C5.74059 2.54965 5.86777 2.49697 6.00037 2.49697C6.13298 2.49697 6.26016 2.54965 6.35393 2.64342C6.4477 2.73718 6.50037 2.86436 6.50037 2.99697ZM12.0004 1.49697C11.8678 1.49697 11.7406 1.54965 11.6468 1.64342C11.5531 1.73718 11.5004 1.86436 11.5004 1.99697V3.12197C11.1035 2.66197 10.6985 2.21884 10.2429 1.75759C9.40903 0.923661 8.34793 0.353943 7.19214 0.119629C6.03636 -0.114686 4.83715 -0.00320697 3.74437 0.440136C2.65158 0.88348 1.71367 1.63903 1.04783 2.61237C0.381997 3.58572 0.0177597 4.73369 0.000633015 5.91287C-0.0164937 7.09204 0.31425 8.25011 0.951537 9.24238C1.58882 10.2347 2.50439 11.0171 3.58384 11.492C4.6633 11.9669 5.85876 12.1132 7.02086 11.9125C8.18296 11.7119 9.26016 11.1732 10.1179 10.3638C10.1656 10.3187 10.2041 10.2646 10.2309 10.2046C10.2578 10.1446 10.2725 10.0799 10.2744 10.0142C10.2763 9.94854 10.2652 9.88312 10.2417 9.82171C10.2183 9.7603 10.183 9.70411 10.1379 9.65634C10.0927 9.60858 10.0386 9.57017 9.97864 9.54331C9.91865 9.51645 9.85396 9.50167 9.78827 9.49982C9.72257 9.49796 9.65715 9.50906 9.59574 9.53249C9.53433 9.55591 9.47814 9.5912 9.43037 9.63634C8.7154 10.3101 7.81777 10.7584 6.84958 10.9251C5.88138 11.0918 4.88553 10.9696 3.98638 10.5737C3.08723 10.1778 2.32464 9.52579 1.79382 8.6991C1.263 7.8724 0.987494 6.90765 1.00169 5.92531C1.0159 4.94297 1.31918 3.98658 1.87367 3.17558C2.42816 2.36457 3.20928 1.73489 4.1195 1.36516C5.02972 0.995438 6.02868 0.902053 6.99166 1.09667C7.95463 1.29129 8.83893 1.76529 9.53412 2.45947C10.0429 2.97447 10.4885 3.47072 10.9379 3.99697H9.50037C9.36777 3.99697 9.24059 4.04965 9.14682 4.14342C9.05305 4.23718 9.00037 4.36436 9.00037 4.49697C9.00037 4.62958 9.05305 4.75675 9.14682 4.85052C9.24059 4.94429 9.36777 4.99697 9.50037 4.99697H12.0004C12.133 4.99697 12.2602 4.94429 12.3539 4.85052C12.4477 4.75675 12.5004 4.62958 12.5004 4.49697V1.99697C12.5004 1.86436 12.4477 1.73718 12.3539 1.64342C12.2602 1.54965 12.133 1.49697 12.0004 1.49697Z" fill="currentColor"/>
</svg>
