<svg width="17" height="16" viewBox="0 0 17 16" fill="none" xmlns="http://www.w3.org/2000/svg">
<path d="M15.9854 6.74994L11.2421 1.97432C9.9753 0.710047 8.25867 0 6.46893 0C4.6792 0 2.96257 0.710047 1.69577 1.97432L1.68944 1.98064L0.721236 2.98119C0.620941 3.08897 0.566902 3.23179 0.570721 3.37897C0.574541 3.52615 0.635913 3.66596 0.741664 3.7684C0.847415 3.87084 0.989114 3.92773 1.13634 3.92687C1.28357 3.926 1.42459 3.86744 1.52913 3.76377L2.49452 2.76674C2.88292 2.37842 3.32614 2.04913 3.81006 1.78939L7.0796 5.06244L0.329596 11.8124C0.225103 11.9169 0.142213 12.0409 0.0856601 12.1774C0.0291075 12.314 0 12.4603 0 12.608C0 12.7558 0.0291075 12.9021 0.0856601 13.0386C0.142213 13.1751 0.225103 13.2991 0.329596 13.4036L1.78436 14.8584C1.88883 14.9629 2.01286 15.0458 2.14937 15.1023C2.28588 15.1589 2.43219 15.188 2.57995 15.188C2.72771 15.188 2.87402 15.1589 3.01053 15.1023C3.14703 15.0458 3.27106 14.9629 3.37553 14.8584L10.1255 8.10838L11.1338 9.11666L12.3755 10.357C12.48 10.4615 12.604 10.5444 12.7405 10.6009C12.877 10.6575 13.0234 10.6866 13.1711 10.6866C13.3189 10.6866 13.4652 10.6575 13.6017 10.6009C13.7382 10.5444 13.8622 10.4615 13.9667 10.357L15.984 8.33971C16.1948 8.12896 16.3133 7.84318 16.3136 7.54511C16.3138 7.24704 16.1958 6.96105 15.9854 6.74994ZM2.5796 14.0624L1.12553 12.6077L5.90678 7.82642L7.36085 9.28119L2.5796 14.0624ZM9.72756 6.91306L8.15678 8.48455L6.70202 7.03119L8.2735 5.45971C8.3258 5.40746 8.36729 5.34543 8.3956 5.27714C8.42391 5.20885 8.43848 5.13566 8.43848 5.06174C8.43848 4.98782 8.42391 4.91462 8.3956 4.84633C8.36729 4.77805 8.3258 4.71601 8.2735 4.66377L4.94491 1.33588C5.9066 1.06503 6.92307 1.05521 7.88981 1.30743C8.85655 1.55965 9.73866 2.06481 10.4455 2.77096L13.5547 5.90056L11.5318 7.92135L10.5235 6.91306C10.4713 6.86077 10.4092 6.81928 10.3409 6.79097C10.2727 6.76266 10.1995 6.74809 10.1255 6.74809C10.0516 6.74809 9.97842 6.76266 9.91013 6.79097C9.84184 6.81928 9.77981 6.86077 9.72756 6.91306ZM13.1729 9.56103L12.3291 8.71728L14.3443 6.69721L15.188 7.54096L13.1729 9.56103Z" fill="currentColor"/>
</svg>
