<svg width="24" height="24" viewBox="0 0 24 24" fill="none" xmlns="http://www.w3.org/2000/svg">
<path d="M20.6409 9.37554L19.0181 6.56304C18.67 5.96032 18.0969 5.52051 17.4246 5.34031C16.7523 5.16011 16.036 5.25427 15.4331 5.6021C15.0969 5.79635 14.8086 6.06353 14.5894 6.38398L12.9562 3.56304C12.7257 3.16437 12.3944 2.83336 11.9955 2.60323C11.5967 2.3731 11.1443 2.25195 10.6837 2.25195C10.2232 2.25195 9.77084 2.3731 9.37195 2.60323C8.97307 2.83336 8.64175 3.16437 8.41125 3.56304C7.93188 3.18558 7.33599 2.9869 6.72602 3.00115C6.11605 3.0154 5.53009 3.24168 5.06887 3.6411C4.60764 4.04053 4.29996 4.58815 4.19871 5.18982C4.09746 5.7915 4.20897 6.40966 4.51406 6.93804L4.66312 7.19679C4.27523 7.22687 3.89907 7.34382 3.5625 7.53898C2.95968 7.88721 2.51988 8.46064 2.33985 9.13313C2.15982 9.80562 2.25429 10.5221 2.6025 11.1249L6.3525 17.6237C6.89201 18.5636 7.61248 19.3872 8.47226 20.047C9.33204 20.7067 10.3141 21.1895 11.3616 21.4674C12.0624 21.6546 12.7848 21.7492 13.5103 21.7487C14.9573 21.7462 16.3782 21.3632 17.6304 20.6381C18.8826 19.913 19.922 18.8713 20.6445 17.6176C21.3669 16.3638 21.7468 14.9421 21.7462 13.4951C21.7456 12.0482 21.3644 10.6268 20.6409 9.37366V9.37554ZM20.0166 15.248C19.6708 16.5373 18.9506 17.695 17.9469 18.575C16.9432 19.455 15.7012 20.0176 14.3778 20.1918C13.0544 20.366 11.7091 20.1439 10.512 19.5536C9.31477 18.9634 8.31947 18.0314 7.65187 16.8755L3.90187 10.3768C3.75912 10.1188 3.72333 9.81516 3.8022 9.53109C3.88107 9.24702 4.0683 9.00526 4.3236 8.85783C4.5789 8.7104 4.88188 8.66908 5.16734 8.74275C5.4528 8.81643 5.69793 8.99922 5.85 9.25179L7.65281 12.3755C7.7006 12.4636 7.76554 12.5411 7.84379 12.6036C7.92204 12.6661 8.01202 12.7123 8.10841 12.7395C8.20481 12.7667 8.30567 12.7743 8.40505 12.7618C8.50443 12.7494 8.60031 12.7172 8.68704 12.6671C8.77376 12.617 8.84958 12.55 8.91 12.4702C8.97043 12.3903 9.01425 12.2991 9.03888 12.2021C9.06351 12.105 9.06844 12.0039 9.05339 11.9049C9.03834 11.8059 9.00361 11.7109 8.95125 11.6255L5.8125 6.18804C5.7354 6.05999 5.6846 5.91787 5.66305 5.76996C5.6415 5.62206 5.64964 5.47135 5.68699 5.32663C5.72435 5.18191 5.79016 5.04608 5.8806 4.92708C5.97103 4.80808 6.08427 4.70829 6.2137 4.63355C6.34314 4.5588 6.48617 4.5106 6.63444 4.49175C6.78271 4.4729 6.93325 4.48379 7.07726 4.52378C7.22128 4.56376 7.35588 4.63204 7.47322 4.72463C7.59055 4.81722 7.68825 4.93227 7.76062 5.06304L10.6875 10.1255C10.7353 10.2136 10.8002 10.2911 10.8785 10.3536C10.9567 10.4161 11.0467 10.4623 11.1431 10.4895C11.2395 10.5167 11.3404 10.5243 11.4397 10.5118C11.5391 10.4994 11.635 10.4672 11.7217 10.4171C11.8084 10.367 11.8843 10.3 11.9447 10.2202C12.0051 10.1403 12.0489 10.0491 12.0736 9.95205C12.0982 9.85497 12.1031 9.75395 12.0881 9.65493C12.073 9.55591 12.0383 9.46092 11.9859 9.37554L9.70968 5.43804C9.63259 5.30999 9.58179 5.16787 9.56024 5.01996C9.53869 4.87206 9.54683 4.72135 9.58418 4.57663C9.62153 4.43191 9.68735 4.29608 9.77778 4.17708C9.86822 4.05808 9.98146 3.95829 10.1109 3.88355C10.2403 3.8088 10.3834 3.7606 10.5316 3.74175C10.6799 3.7229 10.8304 3.73379 10.9745 3.77378C11.1185 3.81376 11.2531 3.88204 11.3704 3.97463C11.4877 4.06722 11.5854 4.18227 11.6578 4.31304L14.7909 9.74116C14.0612 10.4822 13.6106 11.4532 13.5159 12.489C13.4212 13.5247 13.6882 14.5613 14.2716 15.4224C14.3834 15.587 14.5561 15.7004 14.7516 15.7377C14.9472 15.775 15.1495 15.7331 15.3141 15.6212C15.4787 15.5093 15.5921 15.3366 15.6293 15.1411C15.6666 14.9456 15.6247 14.7433 15.5128 14.5787C15.0821 13.9408 14.913 13.1617 15.0406 12.4027C15.1681 11.6436 15.5825 10.9626 16.1981 10.5005C16.3449 10.3905 16.4462 10.2306 16.483 10.0509C16.5198 9.87128 16.4895 9.68437 16.3978 9.52554L15.7716 8.43804C15.6919 8.30997 15.6388 8.1672 15.6155 8.01821C15.5921 7.86922 15.5989 7.71705 15.6355 7.57076C15.6722 7.42446 15.7378 7.28701 15.8286 7.1666C15.9194 7.04618 16.0335 6.94525 16.1641 6.86981C16.2947 6.79436 16.4391 6.74594 16.5888 6.72743C16.7384 6.70891 16.8903 6.72068 17.0353 6.76202C17.1804 6.80337 17.3156 6.87346 17.433 6.96812C17.5504 7.06278 17.6476 7.18008 17.7187 7.31304L19.3416 10.1255C19.7868 10.8921 20.0757 11.7394 20.1916 12.6183C20.3074 13.4972 20.248 14.3904 20.0166 15.2462V15.248ZM17.2734 2.97335C17.3239 2.7813 17.4485 2.61709 17.6198 2.51674C17.7912 2.41639 17.9953 2.38808 18.1875 2.43804C18.9038 2.62682 19.5754 2.9561 20.1634 3.40674C20.7513 3.85738 21.2438 4.42039 21.6122 5.06304L21.6431 5.11648C21.6955 5.20185 21.7302 5.29685 21.7453 5.39587C21.7603 5.49488 21.7554 5.59591 21.7308 5.69299C21.7061 5.79007 21.6623 5.88123 21.6019 5.9611C21.5415 6.04097 21.4656 6.10793 21.3789 6.15802C21.2922 6.20812 21.1963 6.24033 21.0969 6.25277C20.9975 6.26521 20.8967 6.25762 20.8003 6.23044C20.7039 6.20327 20.6139 6.15706 20.5357 6.09455C20.4574 6.03204 20.3925 5.95449 20.3447 5.86648L20.3137 5.81304C20.0434 5.34206 19.682 4.92959 19.2506 4.59964C18.8193 4.26969 18.3266 4.02886 17.8012 3.89116C17.6097 3.83913 17.4467 3.71332 17.3477 3.54129C17.2488 3.36927 17.2221 3.16504 17.2734 2.97335ZM7.58343 22.2193C7.4603 22.3754 7.28025 22.4762 7.08283 22.4995C6.88542 22.5229 6.6868 22.467 6.53062 22.344C5.40886 21.4579 4.46693 20.3655 3.75562 19.1255C3.70638 19.0402 3.67442 18.946 3.66157 18.8484C3.64872 18.7507 3.65524 18.6515 3.68074 18.5563C3.70625 18.4612 3.75025 18.372 3.81023 18.2938C3.87021 18.2157 3.94499 18.1501 4.03031 18.1009C4.11563 18.0516 4.20981 18.0196 4.30748 18.0068C4.40515 17.994 4.50439 18.0005 4.59954 18.026C4.69469 18.0515 4.78389 18.0955 4.86204 18.1555C4.94018 18.2154 5.00575 18.2902 5.055 18.3755C5.67151 19.4489 6.48738 20.3946 7.45875 21.1618C7.5367 21.2228 7.6018 21.2986 7.6503 21.3849C7.6988 21.4712 7.72973 21.5663 7.74133 21.6646C7.75292 21.7629 7.74493 21.8625 7.71783 21.9577C7.69073 22.0529 7.64506 22.1418 7.58343 22.2193Z" fill="currentColor"/>
</svg>
