<svg width="24" height="24" viewBox="0 0 256 256" fill="none" xmlns="http://www.w3.org/2000/svg">
<path d="M218.83 103.77L138.83 28.29C138.79 28.25 138.76 28.22 138.72 28.18C135.83 25.45 132.01 23.93 128.04 23.93C124.07 23.93 120.25 25.45 117.36 28.18L117.25 28.29L37.17 103.77C35.53 105.3 34.22 107.15 33.33 109.21C32.44 111.27 31.99 113.49 32 115.73V208C32 212.24 33.69 216.31 36.69 219.31C39.69 222.31 43.76 224 48 224H96C100.24 224 104.31 222.31 107.31 219.31C110.31 216.31 112 212.24 112 208V160H144V208C144 212.24 145.69 216.31 148.69 219.31C151.69 222.31 155.76 224 160 224H208C212.24 224 216.31 222.31 219.31 219.31C222.31 216.31 224 212.24 224 208V115.73C224.01 113.49 223.56 111.27 222.67 109.21C221.78 107.15 220.47 105.3 218.83 103.77ZM208 208H160V160C160 155.76 158.31 151.69 155.31 148.69C152.31 145.69 148.24 144 144 144H112C107.76 144 103.69 145.69 100.69 148.69C97.69 151.69 96 155.76 96 160V208H48V115.55L48.11 115.45L128 40L207.9 115.43L208 115.53V208Z" fill="currentColor"/>
</svg>
