<svg width="15" height="15" viewBox="0 0 15 15" fill="none" xmlns="http://www.w3.org/2000/svg">
<path d="M7.3125 0C5.86623 0 4.45243 0.428871 3.2499 1.23238C2.04736 2.03589 1.1101 3.17794 0.556634 4.51413C0.00316839 5.85031 -0.141644 7.32061 0.140511 8.7391C0.422665 10.1576 1.11911 11.4605 2.14178 12.4832C3.16446 13.5059 4.46742 14.2023 5.88591 14.4845C7.30439 14.7666 8.77469 14.6218 10.1109 14.0684C11.4471 13.5149 12.5891 12.5776 13.3926 11.3751C14.1961 10.1726 14.625 8.75878 14.625 7.3125C14.623 5.37373 13.8519 3.51496 12.481 2.14404C11.11 0.773127 9.25127 0.00204737 7.3125 0ZM7.3125 13.5C6.08873 13.5 4.89244 13.1371 3.87491 12.4572C2.85738 11.7773 2.06432 10.811 1.596 9.68035C1.12768 8.54974 1.00515 7.30564 1.24389 6.10538C1.48264 4.90512 2.07194 3.80261 2.93728 2.93728C3.80262 2.07194 4.90512 1.48264 6.10538 1.24389C7.30564 1.00515 8.54974 1.12768 9.68036 1.596C10.811 2.06431 11.7773 2.85738 12.4572 3.87491C13.1371 4.89244 13.5 6.08873 13.5 7.3125C13.4981 8.95296 12.8456 10.5257 11.6857 11.6857C10.5257 12.8456 8.95296 13.4981 7.3125 13.5ZM6.75 7.875V3.9375C6.75 3.78832 6.80927 3.64524 6.91476 3.53975C7.02024 3.43426 7.16332 3.375 7.3125 3.375C7.46169 3.375 7.60476 3.43426 7.71025 3.53975C7.81574 3.64524 7.875 3.78832 7.875 3.9375V7.875C7.875 8.02418 7.81574 8.16726 7.71025 8.27275C7.60476 8.37824 7.46169 8.4375 7.3125 8.4375C7.16332 8.4375 7.02024 8.37824 6.91476 8.27275C6.80927 8.16726 6.75 8.02418 6.75 7.875ZM8.15625 10.4062C8.15625 10.5731 8.10677 10.7363 8.01406 10.875C7.92134 11.0138 7.78957 11.1219 7.63539 11.1858C7.48122 11.2496 7.31157 11.2663 7.1479 11.2338C6.98422 11.2012 6.83388 11.1209 6.71588 11.0029C6.59788 10.8849 6.51752 10.7345 6.48497 10.5709C6.45241 10.4072 6.46912 10.2375 6.53298 10.0834C6.59684 9.92919 6.70499 9.79741 6.84374 9.7047C6.9825 9.61199 7.14563 9.5625 7.3125 9.5625C7.53628 9.5625 7.75089 9.6514 7.90912 9.80963C8.06736 9.96786 8.15625 10.1825 8.15625 10.4062Z" fill="currentColor"/>
</svg>
