<svg width="24" height="24" viewBox="0 0 24 24" fill="none" xmlns="http://www.w3.org/2000/svg">
<path d="M22.201 17.6335L14.0026 3.39569C13.7977 3.04687 13.5052 2.75764 13.1541 2.55668C12.803 2.35572 12.4055 2.25 12.001 2.25C11.5965 2.25 11.199 2.35572 10.8479 2.55668C10.4968 2.75764 10.2043 3.04687 9.99944 3.39569L1.80101 17.6335C1.60388 17.9709 1.5 18.3546 1.5 18.7454C1.5 19.1361 1.60388 19.5199 1.80101 19.8572C2.00325 20.2082 2.29523 20.499 2.64697 20.6998C2.99871 20.9006 3.39755 21.0043 3.80257 21.0001H20.1994C20.6041 21.0039 21.0026 20.9001 21.354 20.6993C21.7054 20.4985 21.997 20.2079 22.1991 19.8572C22.3965 19.52 22.5007 19.1364 22.5011 18.7456C22.5014 18.3549 22.3978 17.9711 22.201 17.6335ZM20.9007 19.1063C20.8292 19.2282 20.7266 19.3289 20.6034 19.3981C20.4802 19.4673 20.3407 19.5025 20.1994 19.5001H3.80257C3.66127 19.5025 3.52185 19.4673 3.39863 19.3981C3.2754 19.3289 3.17279 19.2282 3.10132 19.1063C3.03658 18.9967 3.00243 18.8717 3.00243 18.7444C3.00243 18.6171 3.03658 18.4922 3.10132 18.3826L11.2998 4.14475C11.3727 4.02341 11.4757 3.92301 11.599 3.8533C11.7222 3.7836 11.8613 3.74696 12.0029 3.74696C12.1444 3.74696 12.2836 3.7836 12.4068 3.8533C12.53 3.92301 12.6331 4.02341 12.706 4.14475L20.9044 18.3826C20.9686 18.4925 21.0021 18.6176 21.0015 18.7449C21.0008 18.8722 20.966 18.997 20.9007 19.1063ZM11.251 13.5001V9.75006C11.251 9.55115 11.33 9.36038 11.4707 9.21973C11.6113 9.07908 11.8021 9.00006 12.001 9.00006C12.1999 9.00006 12.3907 9.07908 12.5313 9.21973C12.672 9.36038 12.751 9.55115 12.751 9.75006V13.5001C12.751 13.699 12.672 13.8897 12.5313 14.0304C12.3907 14.171 12.1999 14.2501 12.001 14.2501C11.8021 14.2501 11.6113 14.171 11.4707 14.0304C11.33 13.8897 11.251 13.699 11.251 13.5001ZM13.126 16.8751C13.126 17.0976 13.06 17.3151 12.9364 17.5001C12.8128 17.6851 12.6371 17.8293 12.4315 17.9144C12.226 17.9996 11.9998 18.0219 11.7815 17.9784C11.5633 17.935 11.3628 17.8279 11.2055 17.6706C11.0482 17.5132 10.941 17.3128 10.8976 17.0945C10.8542 16.8763 10.8765 16.6501 10.9616 16.4445C11.0468 16.239 11.191 16.0633 11.376 15.9397C11.561 15.816 11.7785 15.7501 12.001 15.7501C12.2994 15.7501 12.5855 15.8686 12.7965 16.0796C13.0075 16.2905 13.126 16.5767 13.126 16.8751Z" fill="currentColor"/>
</svg>
