<svg width="18" height="18" viewBox="0 0 18 18" fill="none" xmlns="http://www.w3.org/2000/svg">
<path d="M15.75 3.375C15.8991 3.37506 16.042 3.4346 16.1475 3.54004C16.2529 3.64551 16.3125 3.78838 16.3125 3.9375V13.5C16.3125 13.7984 16.1934 14.0849 15.9824 14.2959C15.7715 14.5066 15.4856 14.6249 15.1875 14.625H2.8125C2.51417 14.625 2.22757 14.5068 2.0166 14.2959C1.80562 14.0849 1.6875 13.7984 1.6875 13.5V10.6875C1.68752 10.5385 1.7463 10.3955 1.85156 10.29C1.95705 10.1845 2.10082 10.125 2.25 10.125C2.3991 10.1251 2.54203 10.1846 2.64746 10.29C2.75288 10.3955 2.81248 10.5384 2.8125 10.6875V13.5H11.25V11.25H5.625C5.47582 11.25 5.33205 11.1905 5.22656 11.085C5.12133 10.9795 5.0625 10.8365 5.0625 10.6875C5.06252 10.5385 5.1213 10.3955 5.22656 10.29C5.33205 10.1845 5.47582 10.125 5.625 10.125H11.25V7.875H7.3125C7.16332 7.875 7.01955 7.81545 6.91406 7.70996C6.80883 7.60451 6.75 7.46149 6.75 7.3125C6.75002 7.1635 6.8088 7.02048 6.91406 6.91504C7.01955 6.80955 7.16332 6.75 7.3125 6.75H15.1875V4.5H6.75C6.60082 4.5 6.45705 4.44045 6.35156 4.33496C6.24633 4.22951 6.1875 4.08649 6.1875 3.9375C6.18752 3.7885 6.2463 3.64548 6.35156 3.54004C6.45705 3.43455 6.60082 3.375 6.75 3.375H15.75ZM12.375 13.5H15.1875V11.25H12.375V13.5ZM12.375 10.125H15.1875V7.875H12.375V10.125ZM3.375 2.8125C3.5241 2.81256 3.66703 2.8721 3.77246 2.97754C3.87788 3.08301 3.93748 3.22588 3.9375 3.375H4.5C4.6491 3.37506 4.79203 3.4346 4.89746 3.54004C5.00288 3.64551 5.06248 3.78838 5.0625 3.9375C5.0625 4.08662 5.00286 4.22949 4.89746 4.33496C4.79203 4.4404 4.6491 4.49994 4.5 4.5H2.8125C2.66332 4.5 2.51955 4.55955 2.41406 4.66504C2.3088 4.77048 2.25002 4.9135 2.25 5.0625C2.25 5.21149 2.30883 5.35451 2.41406 5.45996C2.51955 5.56545 2.66332 5.625 2.8125 5.625H3.9375C4.38497 5.62506 4.81445 5.80273 5.13086 6.11914C5.44726 6.43559 5.62498 6.86501 5.625 7.3125C5.625 7.75999 5.44724 8.18941 5.13086 8.50586C4.81445 8.82227 4.38497 8.99994 3.9375 9C3.9375 9.14912 3.87786 9.29199 3.77246 9.39746C3.66703 9.5029 3.5241 9.56244 3.375 9.5625C3.22582 9.5625 3.08205 9.50295 2.97656 9.39746C2.87133 9.29201 2.8125 9.14899 2.8125 9H1.96875C1.81957 9 1.6758 8.94045 1.57031 8.83496C1.46508 8.72951 1.40625 8.58649 1.40625 8.4375C1.40627 8.2885 1.46505 8.14548 1.57031 8.04004C1.6758 7.93455 1.81957 7.875 1.96875 7.875H3.9375C4.0866 7.87494 4.22953 7.8154 4.33496 7.70996C4.44036 7.60449 4.5 7.46162 4.5 7.3125C4.49998 7.16338 4.44038 7.02051 4.33496 6.91504C4.22953 6.8096 4.0866 6.75006 3.9375 6.75H2.8125C2.36499 6.75 1.9356 6.57227 1.61914 6.25586C1.30267 5.93939 1.125 5.51005 1.125 5.0625C1.12502 4.61497 1.30269 4.18559 1.61914 3.86914C1.93559 3.55276 2.36501 3.375 2.8125 3.375C2.81252 3.226 2.8713 3.08298 2.97656 2.97754C3.08205 2.87205 3.22582 2.8125 3.375 2.8125Z" fill="currentColor"/>
</svg>



