<svg width="18" height="18" viewBox="0 0 18 18" fill="none" xmlns="http://www.w3.org/2000/svg">
<path d="M14.625 2.25H3.375C3.07663 2.25 2.79048 2.36853 2.5795 2.5795C2.36853 2.79048 2.25 3.07663 2.25 3.375V14.625C2.25 14.9234 2.36853 15.2095 2.5795 15.4205C2.79048 15.6315 3.07663 15.75 3.375 15.75H14.625C14.9234 15.75 15.2095 15.6315 15.4205 15.4205C15.6315 15.2095 15.75 14.9234 15.75 14.625V3.375C15.75 3.07663 15.6315 2.79048 15.4205 2.5795C15.2095 2.36853 14.9234 2.25 14.625 2.25ZM6.75 8.4375C6.75 7.99249 6.88196 7.55748 7.12919 7.18747C7.37643 6.81746 7.72783 6.52907 8.13896 6.35877C8.5501 6.18847 9.0025 6.14392 9.43895 6.23073C9.87541 6.31755 10.2763 6.53184 10.591 6.84651C10.9057 7.16118 11.12 7.56209 11.2068 7.99855C11.2936 8.435 11.249 8.8874 11.0787 9.29854C10.9084 9.70967 10.62 10.0611 10.25 10.3083C9.88002 10.5555 9.44501 10.6875 9 10.6875C8.40326 10.6875 7.83097 10.4504 7.40901 10.0285C6.98705 9.60653 6.75 9.03424 6.75 8.4375ZM4.82836 14.625C5.11621 13.9164 5.57898 13.2922 6.17344 12.8109C6.97382 12.1648 7.97139 11.8124 9 11.8124C10.0286 11.8124 11.0262 12.1648 11.8266 12.8109C12.421 13.2922 12.8838 13.9164 13.1716 14.625H4.82836ZM14.625 14.625H14.367C14.1168 13.8288 13.6925 13.0984 13.1248 12.4867C12.557 11.8751 11.8601 11.3976 11.0848 11.089C11.6368 10.6554 12.0398 10.0605 12.2379 9.3871C12.4359 8.7137 12.4191 7.9953 12.1897 7.33192C11.9603 6.66854 11.5298 6.09318 10.9581 5.68595C10.3864 5.27871 9.70192 5.05986 9 5.05986C8.29808 5.05986 7.61362 5.27871 7.04191 5.68595C6.4702 6.09318 6.03969 6.66854 5.81031 7.33192C5.58092 7.9953 5.56408 8.7137 5.76212 9.3871C5.96016 10.0605 6.36324 10.6554 6.91523 11.089C6.13986 11.3976 5.44298 11.8751 4.87524 12.4867C4.3075 13.0984 3.88315 13.8288 3.63305 14.625H3.375V3.375H14.625V14.625Z" fill="currentColor"/>
</svg>
