<svg width="34" height="34" viewBox="0 0 34 34" fill="none" xmlns="http://www.w3.org/2000/svg">
<g clip-path="url(#clip0_4027_907)">
<g filter="url(#filter0_ii_4027_907)">
<rect x="1.4165" y="1.41675" width="31.1667" height="31.1667" rx="10" fill="url(#paint0_radial_4027_907)"/>
<rect x="1.6365" y="1.63675" width="30.7267" height="30.7267" rx="9.78" stroke="white" stroke-width="0.44"/>
<path d="M25.9155 11.6614C26.378 11.3708 26.9793 11.7042 26.978 12.2502L26.9614 17.7737C26.9609 17.949 26.8721 18.1127 26.7251 18.2083C26.3782 18.4338 25.919 18.1826 25.9214 17.7688L25.9282 16.635C25.9327 15.8554 25.0738 15.3788 24.4146 15.7952L23.1353 16.6028C22.8492 16.7835 22.6754 17.0984 22.6753 17.4368V21.2473C22.6753 21.8856 23.3855 22.2676 23.9185 21.9163C24.2563 21.6936 24.7065 21.9364 24.7065 22.3411V23.801C24.7064 24.0321 24.5908 24.2475 24.3989 24.3762L22.353 25.7493C21.8923 26.0582 21.273 25.7278 21.2729 25.1731V14.9612C21.273 14.7228 21.3962 14.5011 21.5981 14.3743L25.9155 11.6614Z" fill="url(#paint1_radial_4027_907)" stroke="white" stroke-width="0.293333"/>
<path d="M7.82178 12.8584L18.3921 14.5723C18.7278 14.6267 18.9751 14.9167 18.9751 15.2568V25.7988C18.9751 26.215 18.6109 26.5376 18.1978 26.4873L12.0278 25.7334C11.6783 25.6906 11.4162 25.3931 11.4185 25.041L11.4292 23.5703C11.4321 23.1539 11.7985 22.8342 12.2114 22.8877L14.4546 23.1787C15.0431 23.2547 15.5652 22.7975 15.5679 22.2041L15.5835 18.3975C15.5854 17.9052 15.2241 17.487 14.7368 17.417L10.8081 16.8535C10.2178 16.7689 9.68769 17.223 9.68115 17.8193L9.65771 19.9775C9.65294 20.3989 9.2765 20.7188 8.85986 20.6553L7.60596 20.4639C7.26738 20.4121 7.01712 20.1208 7.01709 19.7783V13.543C7.01709 13.1157 7.40003 12.79 7.82178 12.8584Z" fill="url(#paint2_radial_4027_907)" stroke="white" stroke-width="0.293333"/>
<path d="M18.9185 7.82593L23.7847 8.65405C24.4111 8.76114 24.5752 9.58426 24.0376 9.92358L20.2915 12.2888C20.149 12.3788 19.9784 12.414 19.812 12.3875L10.145 10.8435C9.50257 10.7406 9.34314 9.88903 9.90479 9.5603L11.5444 8.60034C11.6847 8.51827 11.85 8.48749 12.0103 8.5144L13.394 8.74683C13.6834 8.79555 13.7552 9.1782 13.5034 9.32886C13.016 9.62029 13.1578 10.3616 13.7183 10.4529L17.9185 11.1365C18.1517 11.1744 18.3908 11.1271 18.5923 11.0037L19.7954 10.2664C20.4998 9.83482 20.2924 8.76084 19.478 8.6228L18.8032 8.50854C18.4865 8.45486 18.4071 8.03683 18.6821 7.87085C18.7531 7.82804 18.8367 7.81209 18.9185 7.82593Z" fill="url(#paint3_radial_4027_907)" stroke="white" stroke-width="0.293333"/>
<g style="mix-blend-mode:soft-light">
<g filter="url(#filter1_f_4027_907)">
<path d="M15.6145 17.7637C15.61 18.0452 16.005 18.1443 16.1427 17.8988C16.5555 17.1628 17.0114 16.4496 17.5104 15.7618C17.8896 15.2391 17.6027 14.4777 16.9653 14.374L8.0019 12.9153C7.49079 12.8321 7.02686 13.2266 7.02686 13.7445V19.6392C7.02686 20.0565 7.33318 20.4105 7.74615 20.4705L8.68212 20.6065C9.18702 20.6799 9.64021 20.29 9.643 19.7798L9.65475 17.6281C9.65754 17.1176 10.1112 16.7276 10.6163 16.8014L15.3888 17.4985C15.52 17.5177 15.6166 17.6312 15.6145 17.7637Z" fill="url(#paint4_radial_4027_907)"/>
</g>
<g filter="url(#filter2_f_4027_907)">
<path d="M13.8084 24.0862C13.9165 23.5904 13.5872 23.097 13.084 23.0314L12.4088 22.9433C11.9086 22.8781 11.4641 23.2653 11.4601 23.7697L11.4513 24.8807C11.4479 25.3086 11.7667 25.6707 12.1916 25.7215L12.6719 25.7789C13.1295 25.8336 13.5441 25.509 13.621 25.0546C13.6759 24.7299 13.7384 24.4071 13.8084 24.0862Z" fill="url(#paint5_radial_4027_907)"/>
</g>
<g filter="url(#filter3_f_4027_907)">
<path d="M20.5703 11.5329C21.1129 10.9788 21.6853 10.4605 22.2814 9.97807C22.8745 9.49804 22.6541 8.48899 21.9021 8.35988L18.9266 7.84908C18.8497 7.83588 18.7707 7.85085 18.7039 7.89124C18.4471 8.0467 18.5214 8.43764 18.8173 8.48809L19.9296 8.67767C20.6077 8.79326 20.7796 9.68798 20.1927 10.0467L18.5379 11.0579C18.3663 11.1628 18.1627 11.2026 17.9641 11.1701L13.2485 10.3982C12.8234 10.3286 12.7163 9.7665 13.086 9.54542C13.4552 9.32469 13.3491 8.7636 12.9248 8.69289L12.0404 8.54548C11.8566 8.51486 11.6679 8.55002 11.5076 8.64479L10.3259 9.34304C9.64841 9.74337 9.84383 10.7719 10.6209 10.8959L19.3366 12.2863C19.6187 12.3314 19.9035 12.229 20.0988 12.0204C20.2533 11.8552 20.4105 11.6927 20.5703 11.5329Z" fill="url(#paint6_radial_4027_907)"/>
</g>
</g>
</g>
</g>
<defs>
<filter id="filter0_ii_4027_907" x="-1.51683" y="-1.51659" width="34.0998" height="34.1001" filterUnits="userSpaceOnUse" color-interpolation-filters="sRGB">
<feFlood flood-opacity="0" result="BackgroundImageFix"/>
<feBlend mode="normal" in="SourceGraphic" in2="BackgroundImageFix" result="shape"/>
<feColorMatrix in="SourceAlpha" type="matrix" values="0 0 0 0 0 0 0 0 0 0 0 0 0 0 0 0 0 0 127 0" result="hardAlpha"/>
<feOffset dx="-2.93333" dy="-2.93333"/>
<feGaussianBlur stdDeviation="5.86667"/>
<feComposite in2="hardAlpha" operator="arithmetic" k2="-1" k3="1"/>
<feColorMatrix type="matrix" values="0 0 0 0 0.277108 0 0 0 0 0.615087 0 0 0 0 0.976923 0 0 0 1 0"/>
<feBlend mode="normal" in2="shape" result="effect1_innerShadow_4027_907"/>
<feColorMatrix in="SourceAlpha" type="matrix" values="0 0 0 0 0 0 0 0 0 0 0 0 0 0 0 0 0 0 127 0" result="hardAlpha"/>
<feOffset dx="-1.46667" dy="-1.46667"/>
<feGaussianBlur stdDeviation="0.733333"/>
<feComposite in2="hardAlpha" operator="arithmetic" k2="-1" k3="1"/>
<feColorMatrix type="matrix" values="0 0 0 0 1 0 0 0 0 1 0 0 0 0 1 0 0 0 0.25 0"/>
<feBlend mode="normal" in2="effect1_innerShadow_4027_907" result="effect2_innerShadow_4027_907"/>
</filter>
<filter id="filter1_f_4027_907" x="6.29352" y="12.1707" width="12.1205" height="9.17809" filterUnits="userSpaceOnUse" color-interpolation-filters="sRGB">
<feFlood flood-opacity="0" result="BackgroundImageFix"/>
<feBlend mode="normal" in="SourceGraphic" in2="BackgroundImageFix" result="shape"/>
<feGaussianBlur stdDeviation="0.366667" result="effect1_foregroundBlur_4027_907"/>
</filter>
<filter id="filter2_f_4027_907" x="10.7178" y="22.2027" width="3.8446" height="4.31554" filterUnits="userSpaceOnUse" color-interpolation-filters="sRGB">
<feFlood flood-opacity="0" result="BackgroundImageFix"/>
<feBlend mode="normal" in="SourceGraphic" in2="BackgroundImageFix" result="shape"/>
<feGaussianBlur stdDeviation="0.366667" result="effect1_foregroundBlur_4027_907"/>
</filter>
<filter id="filter3_f_4027_907" x="9.17926" y="7.11115" width="14.1752" height="5.91906" filterUnits="userSpaceOnUse" color-interpolation-filters="sRGB">
<feFlood flood-opacity="0" result="BackgroundImageFix"/>
<feBlend mode="normal" in="SourceGraphic" in2="BackgroundImageFix" result="shape"/>
<feGaussianBlur stdDeviation="0.366667" result="effect1_foregroundBlur_4027_907"/>
</filter>
<radialGradient id="paint0_radial_4027_907" cx="0" cy="0" r="1" gradientUnits="userSpaceOnUse" gradientTransform="translate(8.81859 6.48133) rotate(53.6125) scale(31.6567 36.823)">
<stop stop-color="#090A0B"/>
<stop offset="0.995192" stop-color="#2E90FA"/>
</radialGradient>
<radialGradient id="paint1_radial_4027_907" cx="0" cy="0" r="1" gradientUnits="userSpaceOnUse" gradientTransform="translate(-13184.7 5975.28) rotate(108.605) scale(456.701 1219)">
<stop stop-color="white"/>
<stop offset="0.4" stop-color="#DAE5EF"/>
<stop offset="0.68" stop-color="#DAE5EF"/>
<stop offset="1" stop-color="#DAE5EF"/>
</radialGradient>
<radialGradient id="paint2_radial_4027_907" cx="0" cy="0" r="1" gradientUnits="userSpaceOnUse" gradientTransform="translate(-15127.5 -370.548) rotate(131.055) scale(1011.54 1171.84)">
<stop stop-color="white"/>
<stop offset="0.4" stop-color="#DAE5EF"/>
<stop offset="0.68" stop-color="#DAE5EF"/>
<stop offset="1" stop-color="#DAE5EF"/>
</radialGradient>
<radialGradient id="paint3_radial_4027_907" cx="0" cy="0" r="1" gradientTransform="matrix(451.46 765.524 -207.839 122.571 -2889.19 8375.52)" gradientUnits="userSpaceOnUse">
<stop stop-color="white"/>
<stop offset="0.4" stop-color="#DAE5EF"/>
<stop offset="0.68" stop-color="#DAE5EF"/>
<stop offset="1" stop-color="#DAE5EF"/>
</radialGradient>
<radialGradient id="paint4_radial_4027_907" cx="0" cy="0" r="1" gradientUnits="userSpaceOnUse" gradientTransform="translate(3510.79 -22049.3) rotate(-131.391) scale(1383.69 971.294)">
<stop stop-color="white"/>
<stop offset="0.4" stop-color="white"/>
<stop offset="0.68" stop-color="white"/>
<stop offset="1" stop-color="white"/>
</radialGradient>
<radialGradient id="paint5_radial_4027_907" cx="0" cy="0" r="1" gradientTransform="matrix(-208.093 -236.107 278.85 -245.766 4073.55 -23261.4)" gradientUnits="userSpaceOnUse">
<stop stop-color="white"/>
<stop offset="0.4" stop-color="#DAE5EF"/>
<stop offset="0.68" stop-color="#DAE5EF"/>
<stop offset="1" stop-color="#DAE5EF"/>
</radialGradient>
<radialGradient id="paint6_radial_4027_907" cx="0" cy="0" r="1" gradientUnits="userSpaceOnUse" gradientTransform="translate(3162.94 -21826.5) rotate(-131.391) scale(1907.29 550.755)">
<stop stop-color="white"/>
<stop offset="0.4" stop-color="#DAE5EF"/>
<stop offset="0.68" stop-color="#DAE5EF"/>
<stop offset="1" stop-color="#DAE5EF"/>
</radialGradient>
<clipPath id="clip0_4027_907">
<rect width="34" height="34" fill="white"/>
</clipPath>
</defs>
</svg>
