<svg width="34" height="34" viewBox="0 0 34 34" fill="none" xmlns="http://www.w3.org/2000/svg">
<g clip-path="url(#clip0_4027_907)">
<g filter="url(#filter0_ii_4027_907)">
<rect x="1.4165" y="1.41675" width="31.1667" height="31.1667" rx="10" fill="url(#paint0_radial_4027_907)"/>
<rect x="1.6365" y="1.63675" width="30.7267" height="30.7267" rx="9.78" stroke="white" stroke-width="0.44"/>
</g>
<g transform="translate(0.77 1.5)">
<g filter="url(#filter0_dd_F)">
<path d="M14.9755 16.0198C15.8004 16.0198 16.728 16.1879 17.7848 16.5475C18.0587 16.5475 18.2283 16.3996 18.2921 16.1257C18.2921 16.1039 18.2921 16.0836 18.3139 16.0619V15.9778C18.3139 15.4284 17.5746 15.1529 16.1163 15.1529C14.9132 15.1529 13.3288 15.3428 11.3428 15.7023C11.6385 14.7093 12.0619 13.7164 12.5895 12.767C13.1171 11.816 13.6027 11.0347 14.0665 10.4215C14.5319 9.80981 15.0393 9.23862 15.5871 8.711C16.1147 8.18338 16.4961 7.82385 16.6859 7.67599C16.8758 7.52814 17.0455 7.40051 17.1497 7.31647C20.1707 7.84408 22.3248 8.11957 23.6337 8.11957C23.9932 8.11957 24.373 8.07754 24.7745 8.01373C25.1761 7.94992 25.5776 7.86587 26.0212 7.71802C26.4648 7.57016 26.8243 7.35849 27.0982 7.06277C27.3722 6.76706 27.4998 6.42932 27.4998 6.02777C27.4998 5.45813 27.162 4.95074 26.5068 4.52896C25.8313 4.10562 24.8804 3.89551 23.6757 3.89551C22.5987 3.89551 21.4796 4.08539 20.275 4.46671C19.0719 4.84647 17.9513 5.4379 16.8961 6.21921C16.0089 6.07135 15.1 5.98731 14.1708 5.98731C11.8673 5.98731 10.009 6.4729 8.59424 7.42386C7.17792 8.39505 6.35458 9.49231 6.08066 10.7405C6.03864 10.9304 6.01685 11.1001 6.01685 11.2899C6.01685 11.7755 6.12268 12.1771 6.35458 12.5148C6.56625 12.8526 6.79816 13.0222 7.07364 13.0222C7.2215 13.0222 7.36935 12.9584 7.49542 12.8105C7.62305 12.6829 7.70709 12.5351 7.74911 12.3872V12.3032C7.74911 12.1973 7.72733 12.1351 7.66507 12.0915C7.13745 11.7538 6.88376 11.332 6.88376 10.823C6.88376 10.7592 6.90399 10.6549 6.92578 10.5071C7.11566 9.64017 7.89853 8.81683 9.26971 8.05576C10.6425 7.29623 12.1428 6.91492 13.8113 6.91492C14.4665 6.91492 15.142 6.99896 15.8393 7.14682L15.4377 7.46277C15.1638 7.65265 14.7825 7.99039 14.3389 8.47754C13.8751 8.96314 13.3879 9.51254 12.8821 10.1678C12.3747 10.823 11.8471 11.6464 11.3179 12.6814C10.7685 13.7164 10.3032 14.7934 9.94519 15.9545L9.14209 16.1241C8.61447 16.2502 7.93744 16.4198 7.13434 16.6517C6.33124 16.8836 5.65576 17.1155 5.10635 17.349C5.04254 17.4128 4.97873 17.4548 4.9585 17.5171V17.5591C4.9585 17.707 5.04254 17.7708 5.1904 17.7708C6.4791 17.7708 7.72421 18.342 8.92886 19.4828C8.80124 20.6439 8.73898 21.7847 8.73898 22.9038C8.73898 25.7551 9.22458 27.1916 10.1958 27.1916C10.5553 27.1916 10.893 27.0018 11.2526 26.6002C11.5903 26.1987 11.802 25.7753 11.9078 25.3115C12.0136 24.868 12.0557 24.4041 12.0557 23.917C12.0557 22.5007 11.528 21.0657 10.4915 19.5871C10.5335 18.868 10.7234 17.8751 11.0627 16.5879C12.6253 16.2082 13.9358 16.0183 14.9708 16.0183L14.9755 16.0198ZM23.4236 4.7811C24.3107 4.7811 25.0298 4.88693 25.5574 5.11884C26.085 5.35074 26.3605 5.60443 26.3605 5.92193V6.00598C26.2967 6.27991 26.001 6.51337 25.4516 6.70325C24.8819 6.89313 24.1006 6.97873 23.1076 6.97873C21.2695 6.97873 19.6213 6.80908 18.1645 6.47134C19.6213 5.3523 21.3754 4.7811 23.4236 4.7811ZM9.18723 18.7217C8.08841 17.8766 7.39114 17.4548 7.11722 17.4548C7.85651 17.2011 8.72186 16.9692 9.67282 16.7794L9.18723 18.7217ZM10.6238 21.1949C10.7716 21.5108 10.9195 21.8921 11.0674 22.3559C11.2152 22.8415 11.279 23.2633 11.279 23.6244C11.279 24.2361 11.0674 24.6174 10.6674 24.7652C10.3919 24.7652 10.244 24.0898 10.244 22.7372C10.244 21.7022 10.286 21.0252 10.3499 20.7513C10.3919 20.7513 10.4775 20.8991 10.6253 21.1949H10.6238Z" fill="url(#paint0_linear_F)"/>
<path d="M23.6753 3.7959C24.8138 3.7959 25.74 3.98151 26.4263 4.36523L26.5601 4.44434L26.561 4.44531C27.2327 4.87773 27.5999 5.41191 27.6001 6.02734C27.6001 6.45328 27.463 6.81607 27.1714 7.13086C26.8835 7.44154 26.5083 7.66073 26.0532 7.8125C25.603 7.96256 25.1955 8.04794 24.7905 8.1123C24.3865 8.17652 24.0002 8.21973 23.6333 8.21973C22.321 8.21967 20.1738 7.94443 17.1763 7.42188C17.0702 7.50577 16.9151 7.62439 16.7476 7.75488C16.5635 7.89824 16.1861 8.25282 15.6577 8.78125L15.6567 8.7832C15.1126 9.3072 14.6083 9.87477 14.146 10.4824C13.6864 11.0902 13.2036 11.8668 12.6772 12.8154C12.1807 13.7089 11.7774 14.641 11.4868 15.5742C13.3994 15.2331 14.9377 15.0527 16.1167 15.0527C16.8492 15.0528 17.4132 15.1217 17.7974 15.2656C17.99 15.3378 18.1441 15.4317 18.2505 15.5508C18.3586 15.6719 18.4135 15.8156 18.4136 15.9775V16.1035L18.3921 16.125V16.1367L18.3892 16.1484C18.3538 16.3002 18.2865 16.427 18.1812 16.5156C18.0751 16.6048 17.9401 16.6475 17.7847 16.6475H17.7681L17.7524 16.6426C16.7033 16.2857 15.7865 16.1201 14.9751 16.1201H14.9595L14.9546 16.1182C13.946 16.1201 12.6694 16.3036 11.145 16.6709C10.8211 17.9077 10.638 18.863 10.5933 19.5586C11.6248 21.0388 12.1558 22.4839 12.1558 23.917C12.1558 24.4098 12.1135 24.8819 12.0054 25.335C11.8957 25.8147 11.6757 26.2524 11.3286 26.665L11.3267 26.667C10.9579 27.0787 10.5955 27.292 10.1958 27.292C9.64476 27.292 9.25581 26.8787 9.0083 26.1494C8.76013 25.418 8.63916 24.332 8.63916 22.9033C8.63918 21.797 8.69946 20.6695 8.82373 19.5225C7.64337 18.4165 6.43372 17.8711 5.18994 17.8711C5.10419 17.871 5.01858 17.8524 4.95361 17.7959C4.88596 17.7369 4.85898 17.6523 4.85889 17.5596V17.501L4.86377 17.4863C4.88136 17.4322 4.91595 17.3919 4.9458 17.3623C4.96085 17.3474 4.97713 17.3326 4.9917 17.3193C5.00697 17.3054 5.02155 17.2924 5.03564 17.2783L5.04932 17.2646L5.06689 17.2568C5.62118 17.0213 6.30142 16.7883 7.10693 16.5557C7.91179 16.3233 8.59013 16.1527 9.11865 16.0264H9.12158L9.86768 15.8682C10.2253 14.722 10.687 13.6576 11.23 12.6348C11.7614 11.5956 12.2918 10.7669 12.8032 10.1064C13.3115 9.4481 13.8005 8.89574 14.2661 8.4082C14.7094 7.92158 15.094 7.5798 15.3755 7.38379L15.604 7.20312C14.9879 7.08358 14.3909 7.01465 13.811 7.01465C12.1588 7.01469 10.675 7.39266 9.31787 8.14355C7.95446 8.9004 7.20443 9.70472 7.02393 10.5283C7.01877 10.5631 7.01393 10.5954 7.00928 10.625C7.0043 10.6567 6.99941 10.6853 6.99561 10.7109C6.98777 10.7638 6.98389 10.7996 6.98389 10.8232C6.98395 11.2325 7.15984 11.5845 7.54248 11.8828L7.71924 12.0068L7.72217 12.0098C7.76881 12.0424 7.80304 12.0843 7.82373 12.1377C7.84326 12.1883 7.84909 12.2444 7.84912 12.3027V12.4014L7.84521 12.4141C7.79909 12.5763 7.7069 12.736 7.5708 12.874L7.57178 12.875C7.42849 13.0431 7.25344 13.122 7.07373 13.1221C6.74848 13.1221 6.48984 12.919 6.27002 12.5684V12.5674C6.02592 12.21 5.91652 11.789 5.9165 11.29C5.9165 11.0917 5.93961 10.9144 5.98291 10.7188C6.2639 9.4388 7.10746 8.32253 8.5376 7.3418L8.53857 7.34082C9.97435 6.37578 11.8537 5.88775 14.1704 5.8877C15.091 5.8877 15.9919 5.96892 16.8706 6.11328C17.9237 5.33863 19.043 4.75042 20.2446 4.37109C21.4571 3.98731 22.5864 3.79595 23.6753 3.7959ZM10.4106 21.0039C10.3704 21.3448 10.3442 21.9277 10.3442 22.7373C10.3442 23.4114 10.3815 23.9098 10.4507 24.2373C10.4855 24.4019 10.5263 24.516 10.5698 24.5859C10.6045 24.6416 10.6342 24.6555 10.6548 24.6602C10.8205 24.5933 10.9482 24.4829 11.0356 24.3213C11.1282 24.1502 11.1792 23.9192 11.1792 23.624C11.1792 23.2748 11.1175 22.8633 10.9722 22.3857V22.3867C10.8254 21.9262 10.6793 21.5485 10.5337 21.2373L10.52 21.209C10.4788 21.1271 10.4412 21.0597 10.4106 21.0039ZM9.53662 16.9102C8.77847 17.0668 8.07873 17.2514 7.45752 17.4502C7.58091 17.5052 7.72743 17.5833 7.89502 17.6855C8.21921 17.8834 8.63044 18.1722 9.12646 18.5498L9.53662 16.9102ZM23.4233 4.88086C21.4771 4.8809 19.8041 5.40222 18.4019 6.41992C19.7968 6.72362 21.3656 6.87891 23.1079 6.87891C24.0963 6.87889 24.8642 6.79287 25.4185 6.6084C25.9585 6.42176 26.2052 6.20677 26.2603 5.99121V5.92188C26.2602 5.79603 26.2068 5.67751 26.0864 5.55957C25.964 5.43971 25.7758 5.32369 25.5171 5.20996C25.0079 4.98623 24.3046 4.88086 23.4233 4.88086Z" stroke="white" stroke-width="0.2"/>
</g>
</g>
</g>
<defs>
<filter id="filter0_ii_4027_907" x="-1.51683" y="-1.51659" width="34.0998" height="34.1001" filterUnits="userSpaceOnUse" color-interpolation-filters="sRGB">
<feFlood flood-opacity="0" result="BackgroundImageFix"/>
<feBlend mode="normal" in="SourceGraphic" in2="BackgroundImageFix" result="shape"/>
<feColorMatrix in="SourceAlpha" type="matrix" values="0 0 0 0 0 0 0 0 0 0 0 0 0 0 0 0 0 0 127 0" result="hardAlpha"/>
<feOffset dx="-2.93333" dy="-2.93333"/>
<feGaussianBlur stdDeviation="5.86667"/>
<feComposite in2="hardAlpha" operator="arithmetic" k2="-1" k3="1"/>
<feColorMatrix type="matrix" values="0 0 0 0 0.9686 0 0 0 0 0.6980 0 0 0 0 0.4784 0 0 0 1 0"/>
<feBlend mode="normal" in2="shape" result="effect1_innerShadow_4027_907"/>
<feColorMatrix in="SourceAlpha" type="matrix" values="0 0 0 0 0 0 0 0 0 0 0 0 0 0 0 0 0 0 127 0" result="hardAlpha"/>
<feOffset dx="-1.46667" dy="-1.46667"/>
<feGaussianBlur stdDeviation="0.733333"/>
<feComposite in2="hardAlpha" operator="arithmetic" k2="-1" k3="1"/>
<feColorMatrix type="matrix" values="0 0 0 0 1 0 0 0 0 1 0 0 0 0 1 0 0 0 0.25 0"/>
<feBlend mode="normal" in2="effect1_innerShadow_4027_907" result="effect2_innerShadow_4027_907"/>
</filter>
<filter id="filter0_dd_F" x="-1.24146" y="-1.30469" width="34.9412" height="35.6963" filterUnits="userSpaceOnUse" color-interpolation-filters="sRGB">
<feFlood flood-opacity="0" result="BackgroundImageFix"/>
<feColorMatrix in="SourceAlpha" type="matrix" values="0 0 0 0 0 0 0 0 0 0 0 0 0 0 0 0 0 0 127 0" result="hardAlpha"/>
<feOffset dx="0.5" dy="0.5"/>
<feColorMatrix type="matrix" values="0 0 0 0 0.0705882 0 0 0 0 0.0509804 0 0 0 0 0.0392157 0 0 0 0.12 0"/>
<feBlend mode="normal" in2="BackgroundImageFix" result="effect1_dropShadow_7354_12396"/>
<feColorMatrix in="SourceAlpha" type="matrix" values="0 0 0 0 0 0 0 0 0 0 0 0 0 0 0 0 0 0 127 0" result="hardAlpha"/>
<feOffset dy="1"/>
<feGaussianBlur stdDeviation="3"/>
<feColorMatrix type="matrix" values="0 0 0 0 0.0705882 0 0 0 0 0.0501961 0 0 0 0 0.0392157 0 0 0 0.26 0"/>
<feBlend mode="normal" in2="effect1_dropShadow_7354_12396" result="effect2_dropShadow_7354_12396"/>
<feBlend mode="normal" in="SourceGraphic" in2="effect2_dropShadow_7354_12396" result="shape"/>
</filter>
<radialGradient id="paint0_radial_4027_907" cx="0" cy="0" r="1" gradientUnits="userSpaceOnUse" gradientTransform="translate(8.81859 6.48133) rotate(53.6125) scale(31.6567 36.823)">
<stop stop-color="#FF5200"/>
<stop offset="0.2488" stop-color="#FD5F10"/>
<stop offset="0.4976" stop-color="#FB6C20"/>
<stop offset="0.99519" stop-color="#F68640"/>
</radialGradient>
<linearGradient id="paint0_linear_F" x1="10.5366" y1="4.42676" x2="16.2291" y2="27.1917" gradientUnits="userSpaceOnUse">
<stop stop-color="white"/>
<stop offset="1" stop-color="#ECECEC"/>
</linearGradient>
<clipPath id="clip0_4027_907">
<rect width="34" height="34" fill="white"/>
</clipPath>
</defs>
</svg>
