<svg width="18" height="18" viewBox="0 0 18 18" fill="none" xmlns="http://www.w3.org/2000/svg">
<path d="M15.8945 11.833C16.0382 11.8714 16.1606 11.9653 16.2354 12.0938C16.3096 12.2226 16.3303 12.3758 16.292 12.5195C16.2536 12.6633 16.1599 12.7865 16.0312 12.8613L9.28125 16.7988C9.19535 16.8489 9.09748 16.8749 8.99805 16.875C8.89848 16.875 8.79988 16.849 8.71387 16.7988L1.96387 12.8613C1.83719 12.7852 1.7457 12.6617 1.70898 12.5186C1.67227 12.3753 1.69406 12.2235 1.76855 12.0957C1.84307 11.9679 1.96464 11.8745 2.10742 11.8359C2.25018 11.7974 2.40255 11.8168 2.53125 11.8896L9 15.6611L15.4688 11.8896C15.5977 11.8154 15.7508 11.7947 15.8945 11.833ZM15.8975 8.45117C15.9696 8.46966 16.0382 8.50296 16.0977 8.54785C16.1569 8.59268 16.2067 8.64873 16.2441 8.71289C16.2816 8.7771 16.3056 8.8482 16.3154 8.92188C16.3252 8.99572 16.3202 9.07165 16.3008 9.14355C16.2814 9.21507 16.2485 9.28223 16.2031 9.34082C16.1575 9.39967 16.1 9.44965 16.0352 9.48633L9.28516 13.4238C9.19923 13.4739 9.1014 13.5 9.00195 13.5C8.90252 13.5 8.80468 13.4739 8.71875 13.4238L1.96875 9.48633C1.84967 9.40702 1.76494 9.28484 1.73242 9.14551C1.69994 9.00624 1.72233 8.86011 1.79395 8.73633C1.86557 8.61259 1.98128 8.52073 2.11816 8.47949C2.25518 8.4383 2.40317 8.45088 2.53125 8.51465L9 12.2861L15.4688 8.51465C15.5326 8.4763 15.6031 8.45023 15.6768 8.43945C15.7503 8.4287 15.8254 8.43278 15.8975 8.45117ZM9.00195 1.125C9.10149 1.12501 9.19917 1.152 9.28516 1.20215L16.0352 5.13965C16.1199 5.18913 16.1903 5.25964 16.2393 5.34473C16.2882 5.42996 16.3144 5.52671 16.3145 5.625C16.3145 5.72331 16.2882 5.82003 16.2393 5.90527C16.1903 5.99044 16.12 6.06182 16.0352 6.11133L9.28516 10.0488C9.19923 10.0989 9.1014 10.125 9.00195 10.125C8.90252 10.125 8.80468 10.0989 8.71875 10.0488L1.96875 6.11133C1.88343 6.06207 1.81205 5.99054 1.7627 5.90527C1.71346 5.82009 1.68772 5.72339 1.6875 5.625C1.68773 5.5266 1.71344 5.42991 1.7627 5.34473C1.81205 5.25947 1.88344 5.18891 1.96875 5.13965L8.71875 1.20215C8.80476 1.15199 8.90239 1.125 9.00195 1.125ZM3.36621 5.625L9 8.91113L14.6328 5.625L9 2.33887L3.36621 5.625Z" fill="currentColor"/>
</svg>



