<svg width="13" height="15" viewBox="0 0 13 15" fill="none" xmlns="http://www.w3.org/2000/svg">
<path d="M12.2105 4.10203L8.27297 0.164531C8.22069 0.112312 8.15864 0.0709042 8.09035 0.0426734C8.02207 0.0144426 7.94889 -5.79295e-05 7.875 1.73924e-07H1.125C0.826631 1.73924e-07 0.540483 0.118527 0.329505 0.329505C0.118526 0.540483 0 0.826632 0 1.125V13.5C0 13.7984 0.118526 14.0845 0.329505 14.2955C0.540483 14.5065 0.826631 14.625 1.125 14.625H11.25C11.5484 14.625 11.8345 14.5065 12.0455 14.2955C12.2565 14.0845 12.375 13.7984 12.375 13.5V4.5C12.3751 4.42611 12.3606 4.35293 12.3323 4.28465C12.3041 4.21636 12.2627 4.15431 12.2105 4.10203ZM8.4375 1.92023L10.4548 3.9375H8.4375V1.92023ZM11.25 13.5H1.125V1.125H7.3125V4.5C7.3125 4.64918 7.37176 4.79226 7.47725 4.89775C7.58274 5.00324 7.72582 5.0625 7.875 5.0625H11.25V13.5ZM9 7.875C9 8.02418 8.94074 8.16726 8.83525 8.27275C8.72976 8.37824 8.58668 8.4375 8.4375 8.4375H3.9375C3.78832 8.4375 3.64524 8.37824 3.53975 8.27275C3.43426 8.16726 3.375 8.02418 3.375 7.875C3.375 7.72582 3.43426 7.58274 3.53975 7.47725C3.64524 7.37176 3.78832 7.3125 3.9375 7.3125H8.4375C8.58668 7.3125 8.72976 7.37176 8.83525 7.47725C8.94074 7.58274 9 7.72582 9 7.875ZM9 10.125C9 10.2742 8.94074 10.4173 8.83525 10.5227C8.72976 10.6282 8.58668 10.6875 8.4375 10.6875H3.9375C3.78832 10.6875 3.64524 10.6282 3.53975 10.5227C3.43426 10.4173 3.375 10.2742 3.375 10.125C3.375 9.97582 3.43426 9.83274 3.53975 9.72725C3.64524 9.62176 3.78832 9.5625 3.9375 9.5625H8.4375C8.58668 9.5625 8.72976 9.62176 8.83525 9.72725C8.94074 9.83274 9 9.97582 9 10.125Z" fill="currentColor"/>
</svg>

