<svg width="18" height="18" viewBox="0 0 18 18" fill="none" xmlns="http://www.w3.org/2000/svg">
<path d="M11.8125 15.75C11.8125 15.8992 11.7532 16.0423 11.6477 16.1477C11.5423 16.2532 11.3992 16.3125 11.25 16.3125H6.74999C6.60081 16.3125 6.45773 16.2532 6.35225 16.1477C6.24676 16.0423 6.18749 15.8992 6.18749 15.75C6.18749 15.6008 6.24676 15.4577 6.35225 15.3523C6.45773 15.2468 6.60081 15.1875 6.74999 15.1875H11.25C11.3992 15.1875 11.5423 15.2468 11.6477 15.3523C11.7532 15.4577 11.8125 15.6008 11.8125 15.75ZM15.5988 13.5C15.5012 13.6719 15.3595 13.8147 15.1883 13.9136C15.0172 14.0125 14.8227 14.0639 14.625 14.0625H3.37499C3.17723 14.0622 2.98303 14.0098 2.81197 13.9106C2.64091 13.8114 2.49903 13.6688 2.40064 13.4972C2.30224 13.3257 2.25081 13.1312 2.25152 12.9335C2.25223 12.7357 2.30506 12.5416 2.40468 12.3708C2.79491 11.6986 3.37499 9.79734 3.37499 7.3125C3.37499 5.82066 3.96763 4.38992 5.02252 3.33502C6.07741 2.28013 7.50815 1.6875 8.99999 1.6875C10.4918 1.6875 11.9226 2.28013 12.9775 3.33502C14.0324 4.38992 14.625 5.82066 14.625 7.3125C14.625 9.79664 15.2058 11.6986 15.596 12.3708C15.6966 12.5419 15.7499 12.7366 15.7502 12.9351C15.7506 13.1336 15.6981 13.3286 15.5981 13.5H15.5988ZM14.625 12.9375C14.0815 12.0045 13.5 9.84727 13.5 7.3125C13.5 6.11903 13.0259 4.97443 12.182 4.13052C11.3381 3.28661 10.1935 2.8125 8.99999 2.8125C7.80652 2.8125 6.66193 3.28661 5.81801 4.13052C4.9741 4.97443 4.49999 6.11903 4.49999 7.3125C4.49999 9.84797 3.91781 12.0052 3.37499 12.9375H14.625Z" fill="currentColor"/>
</svg>
