<svg width="18" height="18" viewBox="0 0 18 18" fill="none" xmlns="http://www.w3.org/2000/svg">
<path d="M15.187 2.81299C15.4854 2.81299 15.7719 2.93111 15.9829 3.14209C16.1938 3.35306 16.312 3.63966 16.312 3.93799V14.063C16.3119 14.3611 16.1937 14.647 15.9829 14.8579C15.7719 15.0689 15.4854 15.188 15.187 15.188H2.81201C2.51378 15.1879 2.228 15.0688 2.01709 14.8579C1.80621 14.647 1.68713 14.3612 1.68701 14.063V3.93799C1.68701 3.63962 1.80611 3.35307 2.01709 3.14209C2.22799 2.93126 2.5138 2.81306 2.81201 2.81299H15.187ZM2.81201 3.93799V14.063H5.62451V3.93799H2.81201ZM6.74951 3.93799V14.063H15.187V3.93799H6.74951Z" fill="currentColor"/>
</svg>
