<svg width="24" height="24" viewBox="0 0 24 24" fill="none" xmlns="http://www.w3.org/2000/svg">
<path d="M19.6558 11.4692C19.7255 11.5388 19.7808 11.6215 19.8186 11.7126C19.8563 11.8036 19.8757 11.9012 19.8757 11.9998C19.8757 12.0984 19.8563 12.196 19.8186 12.287C19.7808 12.3781 19.7255 12.4608 19.6558 12.5304L11.9636 20.2179C10.9788 21.2025 9.6433 21.7556 8.25076 21.7556C6.85821 21.7555 5.52274 21.2022 4.53812 20.2175C3.5535 19.2327 3.0004 17.8972 3.00049 16.5046C3.00058 15.1121 3.55385 13.7766 4.53859 12.792L13.8442 3.34949C14.5472 2.64571 15.5011 2.25004 16.4958 2.24951C17.4906 2.24898 18.4448 2.64365 19.1486 3.34668C19.8524 4.04971 20.248 5.00352 20.2486 5.99828C20.2491 6.99305 19.8544 7.94728 19.1514 8.65105L9.8439 18.0936C9.42121 18.5162 8.84792 18.7537 8.25015 18.7537C7.65238 18.7537 7.07909 18.5162 6.6564 18.0936C6.23371 17.6709 5.99625 17.0976 5.99625 16.4998C5.99625 15.902 6.23371 15.3287 6.6564 14.9061L14.4658 6.97293C14.5342 6.89995 14.6165 6.8414 14.7079 6.80071C14.7993 6.76002 14.8979 6.73802 14.9979 6.73601C15.0979 6.734 15.1973 6.75201 15.2902 6.78899C15.3832 6.82596 15.4678 6.88116 15.539 6.95132C15.6103 7.02149 15.6669 7.10521 15.7053 7.19755C15.7438 7.28989 15.7634 7.38899 15.7629 7.48902C15.7625 7.58904 15.7421 7.68797 15.7029 7.77999C15.6636 7.872 15.6064 7.95524 15.5345 8.0248L7.72421 15.9664C7.65428 16.0357 7.5987 16.1182 7.56065 16.2091C7.52259 16.2999 7.5028 16.3974 7.50241 16.4959C7.50202 16.5944 7.52103 16.692 7.55836 16.7832C7.5957 16.8743 7.65062 16.9572 7.71999 17.0271C7.78937 17.0971 7.87184 17.1527 7.96269 17.1907C8.05355 17.2288 8.15101 17.2486 8.24951 17.249C8.34801 17.2493 8.44563 17.2303 8.53678 17.193C8.62794 17.1557 8.71085 17.1007 8.78078 17.0314L18.0873 7.59355C18.51 7.17173 18.7478 6.59928 18.7485 6.00212C18.7491 5.40497 18.5124 4.83202 18.0906 4.40933C17.6688 3.98665 17.0963 3.74884 16.4992 3.74822C15.902 3.74761 15.3291 3.98423 14.9064 4.40605L5.60265 13.8448C5.25411 14.1928 4.97753 14.606 4.78869 15.0609C4.59985 15.5158 4.50246 16.0034 4.50207 16.4959C4.50167 16.9884 4.59829 17.4762 4.78641 17.9313C4.97452 18.3865 5.25045 18.8002 5.59843 19.1487C5.94641 19.4972 6.35964 19.7738 6.81451 19.9627C7.26938 20.1515 7.757 20.2489 8.24951 20.2493C8.74202 20.2497 9.22979 20.1531 9.68496 19.965C10.1401 19.7768 10.5538 19.5009 10.9023 19.1529L18.5955 11.4654C18.7366 11.3254 18.9276 11.2471 19.1264 11.2478C19.3252 11.2485 19.5156 11.3281 19.6558 11.4692Z" fill="currentColor"/>
</svg>




