<svg width="18" height="18" viewBox="0 0 18 18" fill="none" xmlns="http://www.w3.org/2000/svg">
<path d="M10.6875 1.6875C11.135 1.68756 11.5644 1.86523 11.8809 2.18164C12.1973 2.49809 12.375 2.92751 12.375 3.375V3.9375H15.1875C15.4856 3.93756 15.7715 4.05593 15.9824 4.2666C16.1934 4.47757 16.3125 4.76415 16.3125 5.0625V14.0625C16.3125 14.3609 16.1934 14.6474 15.9824 14.8584C15.7715 15.0691 15.4856 15.1874 15.1875 15.1875H2.8125C2.51417 15.1875 2.22757 15.0693 2.0166 14.8584C1.80562 14.6474 1.6875 14.3609 1.6875 14.0625V5.0625C1.68752 4.76415 1.80564 4.47757 2.0166 4.2666C2.22757 4.05571 2.5142 3.9375 2.8125 3.9375H5.625V3.375C5.62502 2.92747 5.80269 2.49809 6.11914 2.18164C6.43559 1.86526 6.86501 1.6875 7.3125 1.6875H10.6875ZM2.8125 12.375V14.0625H15.1875V12.375H2.8125ZM2.8125 7.875V11.25H15.1875V7.875H2.8125ZM2.8125 5.0625V6.75H15.1875V5.0625H2.8125ZM7.3125 2.8125C7.16332 2.8125 7.01955 2.87205 6.91406 2.97754C6.8088 3.08298 6.75002 3.226 6.75 3.375V3.9375H11.25V3.375C11.25 3.22588 11.1904 3.08301 11.085 2.97754C10.9795 2.8721 10.8366 2.81256 10.6875 2.8125H7.3125Z" fill="currentColor"/>
</svg>



