<svg width="18" height="18" viewBox="0 0 18 18" fill="none" xmlns="http://www.w3.org/2000/svg">
<path d="M15.1875 2.8125C15.4856 2.81256 15.7715 2.93093 15.9824 3.1416C16.1934 3.35257 16.3125 3.63915 16.3125 3.9375V14.625C16.3124 14.7207 16.2878 14.8148 16.2412 14.8984C16.1945 14.9822 16.1265 15.0531 16.0449 15.1035C15.9634 15.1538 15.8701 15.1823 15.7744 15.1865C15.6788 15.1907 15.5836 15.1708 15.498 15.1279L13.5 14.1289L11.502 15.1279C11.4239 15.167 11.3373 15.1875 11.25 15.1875C11.1626 15.1875 11.0762 15.167 10.998 15.1279L9 14.1289L7.00195 15.1279C6.92387 15.167 6.83731 15.1875 6.75 15.1875C6.66263 15.1875 6.57618 15.167 6.49805 15.1279L4.5 14.1289L2.50195 15.1279C2.41622 15.1708 2.32039 15.1908 2.22461 15.1865C2.12887 15.1822 2.03565 15.1539 1.9541 15.1035C1.87255 15.0531 1.80551 14.9821 1.75879 14.8984C1.71216 14.8148 1.68755 14.7208 1.6875 14.625V3.9375C1.68752 3.63915 1.80564 3.35257 2.0166 3.1416C2.22757 2.93071 2.5142 2.8125 2.8125 2.8125H15.1875ZM2.8125 13.7148L4.24805 12.9971C4.32619 12.958 4.41261 12.9375 4.5 12.9375C4.58731 12.9375 4.67387 12.958 4.75195 12.9971L6.75 13.9961L8.74805 12.9971C8.82619 12.958 8.91261 12.9375 9 12.9375C9.08731 12.9375 9.17387 12.958 9.25195 12.9971L11.25 13.9961L13.248 12.9971C13.3262 12.958 13.4126 12.9375 13.5 12.9375C13.5873 12.9375 13.6739 12.958 13.752 12.9971L15.1875 13.7148V3.9375H2.8125V13.7148ZM12.375 9C12.5241 9.00006 12.667 9.0596 12.7725 9.16504C12.8779 9.27051 12.9375 9.41338 12.9375 9.5625C12.9375 9.71162 12.8779 9.85449 12.7725 9.95996C12.667 10.0654 12.5241 10.1249 12.375 10.125H5.625C5.47582 10.125 5.33205 10.0655 5.22656 9.95996C5.12133 9.85451 5.0625 9.71149 5.0625 9.5625C5.06252 9.4135 5.1213 9.27048 5.22656 9.16504C5.33205 9.05955 5.47582 9 5.625 9H12.375ZM12.375 6.75C12.5241 6.75006 12.667 6.8096 12.7725 6.91504C12.8779 7.02051 12.9375 7.16338 12.9375 7.3125C12.9375 7.46162 12.8779 7.60449 12.7725 7.70996C12.667 7.8154 12.5241 7.87494 12.375 7.875H5.625C5.47582 7.875 5.33205 7.81545 5.22656 7.70996C5.12133 7.60451 5.0625 7.46149 5.0625 7.3125C5.06252 7.1635 5.1213 7.02048 5.22656 6.91504C5.33205 6.80955 5.47582 6.75 5.625 6.75H12.375Z" fill="currentColor"/>
</svg>


