<svg width="18" height="18" viewBox="0 0 18 18" fill="none" xmlns="http://www.w3.org/2000/svg">
<path d="M10.6875 1.6875C10.7613 1.68747 10.8342 1.70231 10.9023 1.73047C10.9706 1.7587 11.0327 1.80032 11.085 1.85254L15.0225 5.79004C15.0746 5.8423 15.1163 5.90441 15.1445 5.97266C15.1727 6.04082 15.1876 6.11376 15.1875 6.1875V15.1875C15.1875 15.4859 15.0684 15.7724 14.8574 15.9834C14.6465 16.1941 14.3606 16.3124 14.0625 16.3125H3.9375C3.63917 16.3125 3.35257 16.1943 3.1416 15.9834C2.93062 15.7724 2.8125 15.4859 2.8125 15.1875V2.8125C2.81252 2.51415 2.93064 2.22757 3.1416 2.0166C3.35257 1.80571 3.6392 1.6875 3.9375 1.6875H10.6875ZM3.9375 2.8125V15.1875H14.0625V6.75H10.6875C10.5383 6.75 10.3946 6.69045 10.2891 6.58496C10.1838 6.47951 10.125 6.33649 10.125 6.1875V2.8125H3.9375ZM11.25 11.25C11.3991 11.2501 11.542 11.3096 11.6475 11.415C11.7529 11.5205 11.8125 11.6634 11.8125 11.8125C11.8125 11.9616 11.7529 12.1045 11.6475 12.21C11.542 12.3154 11.3991 12.3749 11.25 12.375H6.75C6.60082 12.375 6.45705 12.3155 6.35156 12.21C6.24633 12.1045 6.1875 11.9615 6.1875 11.8125C6.18752 11.6635 6.2463 11.5205 6.35156 11.415C6.45705 11.3095 6.60082 11.25 6.75 11.25H11.25ZM11.25 9C11.3991 9.00006 11.542 9.0596 11.6475 9.16504C11.7529 9.27051 11.8125 9.41338 11.8125 9.5625C11.8125 9.71162 11.7529 9.85449 11.6475 9.95996C11.542 10.0654 11.3991 10.1249 11.25 10.125H6.75C6.60082 10.125 6.45705 10.0655 6.35156 9.95996C6.24633 9.85451 6.1875 9.71149 6.1875 9.5625C6.18752 9.4135 6.2463 9.27048 6.35156 9.16504C6.45705 9.05955 6.60082 9 6.75 9H11.25ZM11.25 5.625H13.2666L11.25 3.60742V5.625Z" fill="currentColor"/>
</svg>


