<svg width="18" height="18" viewBox="0 0 15.75 15.75" fill="none" xmlns="http://www.w3.org/2000/svg">
<path d="M14.7558 6.10453C14.4907 5.8275 14.2165 5.54203 14.1131 5.29102C14.0175 5.06109 14.0119 4.68 14.0062 4.31086C13.9957 3.62461 13.9845 2.84695 13.4437 2.30625C12.903 1.76555 12.1254 1.7543 11.4391 1.74375C11.07 1.73812 10.6889 1.7325 10.459 1.63687C10.2087 1.53352 9.9225 1.2593 9.64547 0.994219C9.16031 0.528047 8.60906 0 7.875 0C7.14094 0 6.59039 0.528047 6.10453 0.994219C5.8275 1.2593 5.54203 1.53352 5.29102 1.63687C5.0625 1.7325 4.68 1.73812 4.31086 1.74375C3.62461 1.7543 2.84695 1.76555 2.30625 2.30625C1.76555 2.84695 1.75781 3.62461 1.74375 4.31086C1.73812 4.68 1.7325 5.06109 1.63687 5.29102C1.53352 5.54133 1.2593 5.8275 0.994219 6.10453C0.528047 6.59039 0 7.14094 0 7.875C0 8.60906 0.528047 9.15961 0.994219 9.64547C1.2593 9.9225 1.53352 10.208 1.63687 10.459C1.7325 10.6889 1.73812 11.07 1.74375 11.4391C1.7543 12.1254 1.76555 12.903 2.30625 13.4437C2.84695 13.9845 3.62461 13.9957 4.31086 14.0062C4.68 14.0119 5.06109 14.0175 5.29102 14.1131C5.54133 14.2165 5.8275 14.4907 6.10453 14.7558C6.58969 15.222 7.14094 15.75 7.875 15.75C8.60906 15.75 9.15961 15.222 9.64547 14.7558C9.9225 14.4907 10.208 14.2165 10.459 14.1131C10.6889 14.0175 11.07 14.0119 11.4391 14.0062C12.1254 13.9957 12.903 13.9845 13.4437 13.4437C13.9845 12.903 13.9957 12.1254 14.0062 11.4391C14.0119 11.07 14.0175 10.6889 14.1131 10.459C14.2165 10.2087 14.4907 9.9225 14.7558 9.64547C15.222 9.15961 15.75 8.60906 15.75 7.875C15.75 7.14094 15.222 6.59039 14.7558 6.10453ZM13.9437 8.86711C13.6069 9.21867 13.2581 9.58219 13.0732 10.0287C12.896 10.4576 12.8883 10.9477 12.8812 11.4223C12.8742 11.9145 12.8665 12.4298 12.6478 12.6478C12.4291 12.8658 11.9173 12.8742 11.4223 12.8812C10.9477 12.8883 10.4576 12.896 10.0287 13.0732C9.58219 13.2581 9.21867 13.6069 8.86711 13.9437C8.51555 14.2805 8.15625 14.625 7.875 14.625C7.59375 14.625 7.23164 14.2791 6.88289 13.9437C6.53414 13.6083 6.16781 13.2581 5.72133 13.0732C5.29242 12.896 4.80234 12.8883 4.32773 12.8812C3.83555 12.8742 3.32016 12.8665 3.10219 12.6478C2.88422 12.4291 2.87578 11.9173 2.86875 11.4223C2.86172 10.9477 2.85398 10.4576 2.6768 10.0287C2.49187 9.58219 2.14312 9.21867 1.80633 8.86711C1.46953 8.51555 1.125 8.15625 1.125 7.875C1.125 7.59375 1.47094 7.23234 1.80633 6.88289C2.14172 6.53344 2.49187 6.16781 2.6768 5.72133C2.85398 5.29242 2.86172 4.80234 2.86875 4.32773C2.87578 3.83555 2.88352 3.32016 3.10219 3.10219C3.32086 2.88422 3.83273 2.87578 4.32773 2.86875C4.80234 2.86172 5.29242 2.85398 5.72133 2.6768C6.16781 2.49187 6.53133 2.14312 6.88289 1.80633C7.23445 1.46953 7.59375 1.125 7.875 1.125C8.15625 1.125 8.51836 1.47094 8.86711 1.80633C9.21586 2.14172 9.58219 2.49187 10.0287 2.6768C10.4576 2.85398 10.9477 2.86172 11.4223 2.86875C11.9145 2.87578 12.4298 2.88352 12.6478 3.10219C12.8658 3.32086 12.8742 3.83273 12.8812 4.32773C12.8883 4.80234 12.896 5.29242 13.0732 5.72133C13.2581 6.16781 13.6069 6.53133 13.9437 6.88289C14.2805 7.23445 14.625 7.59375 14.625 7.875C14.625 8.15625 14.2791 8.51766 13.9437 8.86711ZM7.3125 5.625C7.3125 5.29124 7.21353 4.96498 7.0281 4.68748C6.84268 4.40997 6.57913 4.19368 6.27078 4.06595C5.96243 3.93823 5.62313 3.90481 5.29579 3.96992C4.96844 4.03504 4.66776 4.19576 4.43176 4.43176C4.19576 4.66776 4.03504 4.96844 3.96992 5.29579C3.90481 5.62313 3.93823 5.96243 4.06595 6.27078C4.19368 6.57913 4.40997 6.84268 4.68748 7.0281C4.96498 7.21353 5.29124 7.3125 5.625 7.3125C6.07255 7.3125 6.50178 7.13471 6.81824 6.81824C7.13471 6.50178 7.3125 6.07255 7.3125 5.625ZM5.0625 5.625C5.0625 5.51375 5.09549 5.40499 5.1573 5.31249C5.21911 5.21999 5.30696 5.14789 5.40974 5.10532C5.51252 5.06274 5.62562 5.0516 5.73474 5.07331C5.84385 5.09501 5.94408 5.14859 6.02275 5.22725C6.10141 5.30592 6.15499 5.40615 6.17669 5.51526C6.1984 5.62438 6.18726 5.73748 6.14468 5.84026C6.10211 5.94304 6.03001 6.03089 5.93751 6.0927C5.84501 6.15451 5.73625 6.1875 5.625 6.1875C5.47582 6.1875 5.33274 6.12824 5.22725 6.02275C5.12176 5.91726 5.0625 5.77418 5.0625 5.625ZM10.125 8.4375C9.79124 8.4375 9.46498 8.53647 9.18748 8.72189C8.90997 8.90732 8.69368 9.17087 8.56595 9.47922C8.43823 9.78757 8.40481 10.1269 8.46992 10.4542C8.53504 10.7816 8.69576 11.0822 8.93176 11.3182C9.16776 11.5542 9.46844 11.715 9.79578 11.7801C10.1231 11.8452 10.4624 11.8118 10.7708 11.684C11.0791 11.5563 11.3427 11.34 11.5281 11.0625C11.7135 10.785 11.8125 10.4588 11.8125 10.125C11.8125 9.67745 11.6347 9.24822 11.3182 8.93176C11.0018 8.61529 10.5726 8.4375 10.125 8.4375ZM10.125 10.6875C10.0137 10.6875 9.90499 10.6545 9.81249 10.5927C9.71999 10.5309 9.64789 10.443 9.60532 10.3403C9.56274 10.2375 9.5516 10.1244 9.57331 10.0153C9.59501 9.90615 9.64858 9.80592 9.72725 9.72725C9.80592 9.64858 9.90615 9.59501 10.0153 9.57331C10.1244 9.5516 10.2375 9.56274 10.3403 9.60532C10.443 9.64789 10.5309 9.71999 10.5927 9.81249C10.6545 9.90499 10.6875 10.0137 10.6875 10.125C10.6875 10.2742 10.6282 10.4173 10.5227 10.5227C10.4173 10.6282 10.2742 10.6875 10.125 10.6875ZM11.0855 5.46047L5.46047 11.0855C5.40821 11.1377 5.34616 11.1792 5.27788 11.2075C5.2096 11.2358 5.13641 11.2503 5.0625 11.2503C4.98859 11.2503 4.9154 11.2358 4.84712 11.2075C4.77884 11.1792 4.71679 11.1377 4.66453 11.0855C4.61227 11.0332 4.57081 10.9712 4.54253 10.9029C4.51424 10.8346 4.49969 10.7614 4.49969 10.6875C4.49969 10.6136 4.51424 10.5404 4.54253 10.4721C4.57081 10.4038 4.61227 10.3418 4.66453 10.2895L10.2895 4.66453C10.3418 4.61227 10.4038 4.57081 10.4721 4.54253C10.5404 4.51424 10.6136 4.49969 10.6875 4.49969C10.7614 4.49969 10.8346 4.51424 10.9029 4.54253C10.9712 4.57081 11.0332 4.61227 11.0855 4.66453C11.1377 4.71679 11.1792 4.77884 11.2075 4.84712C11.2358 4.9154 11.2503 4.98859 11.2503 5.0625C11.2503 5.13641 11.2358 5.2096 11.2075 5.27788C11.1792 5.34616 11.1377 5.40821 11.0855 5.46047Z" fill="currentColor"/>
</svg>
