<svg width="14" height="14" viewBox="0 0 14 14" fill="none" xmlns="http://www.w3.org/2000/svg">
<path d="M5.3813 0.00142346C6.79813 -0.0307763 8.17356 0.484358 9.22017 1.4399C10.2668 2.39545 10.9049 3.71837 11.0014 5.13228C11.0978 6.54607 10.6447 7.94286 9.73774 9.0317L12.8676 12.1606C12.914 12.207 12.9509 12.2621 12.976 12.3227C13.0011 12.3834 13.0141 12.4485 13.0141 12.5141C13.0141 12.5798 13.0011 12.6449 12.976 12.7055C12.9509 12.7662 12.914 12.8212 12.8676 12.8676C12.8212 12.914 12.7661 12.9509 12.7055 12.976C12.6449 13.0011 12.5797 13.0141 12.5141 13.0141C12.4485 13.0141 12.3833 13.0011 12.3227 12.976C12.262 12.9509 12.2061 12.9141 12.1596 12.8676L9.03169 9.73873C7.94275 10.6457 6.54521 11.098 5.1313 11.0014C3.71756 10.9048 2.39534 10.2667 1.43989 9.22017C0.484435 8.17366 -0.0306892 6.79898 0.00141533 5.38228C0.0336153 3.96545 0.61063 2.61486 1.61274 1.61275C2.61474 0.610795 3.96467 0.0337368 5.3813 0.00142346ZM6.39204 1.10006C5.51913 0.926423 4.61372 1.0163 3.79145 1.35689C2.96935 1.69751 2.26631 2.27421 1.77192 3.01412C1.27757 3.75408 1.01411 4.62421 1.01411 5.51412C1.01547 6.70714 1.48985 7.85119 2.33345 8.69478C3.17705 9.53828 4.32114 10.0128 5.51411 10.0141C6.40403 10.0141 7.27417 9.74974 8.01411 9.25533C8.754 8.76087 9.33079 8.05796 9.67134 7.2358C10.0118 6.41362 10.1008 5.50899 9.9272 4.63619C9.75358 3.76337 9.32497 2.96178 8.69575 2.33248C8.06647 1.7032 7.26487 1.27372 6.39204 1.10006Z" fill="currentColor"/>
</svg>


