<svg width="24" height="24" viewBox="0 0 24 24" fill="none" xmlns="http://www.w3.org/2000/svg">
<path d="M12 7.49956C11.11 7.49956 10.2399 7.76348 9.49992 8.25794C8.75989 8.75241 8.18312 9.45521 7.84252 10.2775C7.50193 11.0997 7.41282 12.0045 7.58645 12.8775C7.76008 13.7504 8.18867 14.5522 8.818 15.1815C9.44734 15.8109 10.2492 16.2395 11.1221 16.4131C11.995 16.5867 12.8998 16.4976 13.7221 16.157C14.5443 15.8164 15.2471 15.2396 15.7416 14.4996C16.2361 13.7596 16.5 12.8896 16.5 11.9996C16.4987 10.8065 16.0242 9.66259 15.1806 8.81895C14.3369 7.9753 13.1931 7.5008 12 7.49956ZM12 14.9996C11.4066 14.9996 10.8266 14.8236 10.3333 14.494C9.83992 14.1643 9.45541 13.6958 9.22834 13.1476C9.00128 12.5994 8.94187 11.9962 9.05763 11.4143C9.17338 10.8323 9.4591 10.2978 9.87866 9.87823C10.2982 9.45868 10.8328 9.17295 11.4147 9.0572C11.9967 8.94144 12.5999 9.00085 13.148 9.22792C13.6962 9.45498 14.1647 9.8395 14.4944 10.3328C14.824 10.8262 15 11.4062 15 11.9996C15 12.7952 14.6839 13.5583 14.1213 14.1209C13.5587 14.6835 12.7956 14.9996 12 14.9996ZM20.25 12.2021C20.2537 12.0671 20.2537 11.9321 20.25 11.7971L21.6487 10.0496C21.7221 9.9578 21.7728 9.85011 21.7969 9.73514C21.821 9.62018 21.8178 9.50116 21.7875 9.38768C21.5582 8.52574 21.2152 7.69816 20.7675 6.92674C20.7089 6.82579 20.6275 6.73992 20.5298 6.67595C20.4322 6.61199 20.3209 6.5717 20.205 6.5583L17.9812 6.3108C17.8887 6.2133 17.795 6.11955 17.7 6.02955L17.4375 3.80018C17.424 3.68413 17.3836 3.57284 17.3194 3.47518C17.2553 3.37752 17.1692 3.29619 17.0681 3.23768C16.2964 2.79082 15.4689 2.44815 14.6072 2.21862C14.4936 2.18843 14.3746 2.18534 14.2596 2.2096C14.1446 2.23387 14.037 2.2848 13.9453 2.3583L12.2025 3.74955C12.0675 3.74955 11.9325 3.74955 11.7975 3.74955L10.05 2.35362C9.95823 2.28027 9.85053 2.22951 9.73557 2.20541C9.62061 2.18131 9.50159 2.18455 9.38811 2.21487C8.52631 2.44458 7.69878 2.78757 6.92717 3.23487C6.82622 3.29349 6.74034 3.37486 6.67638 3.47251C6.61242 3.57017 6.57213 3.6814 6.55873 3.79737L6.31123 6.02487C6.21373 6.11799 6.11998 6.21174 6.02998 6.30612L3.80061 6.56206C3.68456 6.57556 3.57326 6.61598 3.4756 6.68011C3.37794 6.74424 3.29662 6.8303 3.23811 6.93143C2.79124 7.70315 2.44858 8.53066 2.21904 9.39237C2.18885 9.50592 2.18577 9.62498 2.21003 9.73995C2.23429 9.85491 2.28523 9.96257 2.35873 10.0542L3.74998 11.7971C3.74998 11.9321 3.74998 12.0671 3.74998 12.2021L2.35404 13.9496C2.2807 14.0413 2.22994 14.149 2.20584 14.264C2.18174 14.3789 2.18498 14.4979 2.21529 14.6114C2.4446 15.4734 2.78761 16.3009 3.23529 17.0724C3.29391 17.1733 3.37529 17.2592 3.47294 17.3232C3.57059 17.3871 3.68183 17.4274 3.79779 17.4408L6.02154 17.6883C6.11467 17.7858 6.20842 17.8796 6.30279 17.9696L6.56248 20.1989C6.57598 20.315 6.61641 20.4263 6.68054 20.5239C6.74467 20.6216 6.83073 20.7029 6.93186 20.7614C7.70357 21.2083 8.53108 21.551 9.3928 21.7805C9.50635 21.8107 9.62541 21.8138 9.74038 21.7895C9.85534 21.7652 9.963 21.7143 10.0547 21.6408L11.7975 20.2496C11.9325 20.2533 12.0675 20.2533 12.2025 20.2496L13.95 21.6483C14.0417 21.7216 14.1494 21.7724 14.2644 21.7965C14.3794 21.8206 14.4984 21.8174 14.6119 21.7871C15.4738 21.5578 16.3014 21.2147 17.0728 20.7671C17.1737 20.7084 17.2596 20.6271 17.3236 20.5294C17.3875 20.4318 17.4278 20.3205 17.4412 20.2046L17.6887 17.9808C17.7862 17.8883 17.88 17.7946 17.97 17.6996L20.1994 17.4371C20.3154 17.4236 20.4267 17.3831 20.5244 17.319C20.622 17.2549 20.7033 17.1688 20.7619 17.0677C21.2087 16.296 21.5514 15.4685 21.7809 14.6067C21.8111 14.4932 21.8142 14.3741 21.7899 14.2592C21.7657 14.1442 21.7147 14.0365 21.6412 13.9449L20.25 12.2021ZM18.7406 11.5927C18.7565 11.8637 18.7565 12.1354 18.7406 12.4064C18.7294 12.592 18.7876 12.7751 18.9037 12.9202L20.234 14.5824C20.0814 15.0675 19.8859 15.5381 19.65 15.9886L17.5312 16.2286C17.3467 16.2491 17.1764 16.3373 17.0531 16.4761C16.8726 16.6791 16.6804 16.8713 16.4775 17.0517C16.3387 17.175 16.2505 17.3454 16.23 17.5299L15.9947 19.6467C15.5442 19.8828 15.0736 20.0783 14.5884 20.2308L12.9253 18.9005C12.7922 18.7942 12.6269 18.7363 12.4565 18.7364H12.4115C12.1405 18.7524 11.8688 18.7524 11.5978 18.7364C11.4122 18.7253 11.2292 18.7834 11.084 18.8996L9.41717 20.2308C8.93204 20.0782 8.46144 19.8827 8.01092 19.6467L7.77092 17.5308C7.75044 17.3463 7.66225 17.1759 7.52342 17.0527C7.32046 16.8722 7.12825 16.68 6.94779 16.4771C6.82454 16.3382 6.65418 16.25 6.46967 16.2296L4.35279 15.9933C4.11672 15.5428 3.92126 15.0722 3.76873 14.5871L5.09904 12.9239C5.21521 12.7788 5.27334 12.5957 5.26217 12.4102C5.24623 12.1392 5.24623 11.8674 5.26217 11.5964C5.27334 11.4109 5.21521 11.2278 5.09904 11.0827L3.76873 9.41674C3.92138 8.93162 4.11684 8.46102 4.35279 8.01049L6.46873 7.77049C6.65325 7.75001 6.82361 7.66182 6.94686 7.52299C7.12732 7.32003 7.31952 7.12783 7.52248 6.94737C7.66187 6.82404 7.75042 6.65329 7.77092 6.46831L8.00623 4.35237C8.4567 4.1163 8.92731 3.92084 9.41248 3.7683L11.0756 5.09862C11.2207 5.21478 11.4038 5.27291 11.5894 5.26174C11.8604 5.24581 12.1321 5.24581 12.4031 5.26174C12.5887 5.27291 12.7717 5.21478 12.9169 5.09862L14.5828 3.7683C15.0679 3.92095 15.5385 4.11641 15.989 4.35237L16.229 6.46831C16.2495 6.65282 16.3377 6.82318 16.4765 6.94643C16.6795 7.12689 16.8717 7.31909 17.0522 7.52205C17.1754 7.66089 17.3458 7.74907 17.5303 7.76955L19.6472 8.00487C19.8832 8.45534 20.0787 8.92595 20.2312 9.41112L18.9009 11.0742C18.7836 11.2206 18.7254 11.4056 18.7378 11.5927H18.7406Z" fill="currentColor"/>
</svg>
