<svg width="24" height="24" viewBox="0 0 24 24" fill="none" xmlns="http://www.w3.org/2000/svg">
<path d="M11.6803 2.04677C11.8847 1.98441 12.1027 1.98441 12.3071 2.04677C14.7731 2.79835 17.3792 2.95513 19.9125 2.50318L20.206 2.45084C20.4199 2.41272 20.6407 2.44104 20.8371 2.53163C21.0335 2.62222 21.1957 2.77034 21.3035 2.95638C21.4112 3.14242 21.4592 3.35764 21.441 3.57239C21.4228 3.78714 21.3393 3.99098 21.2021 4.15583C20.2021 5.33583 19.4996 6.77333 19.4996 8.43945V10.4995C19.4996 15.1679 16.3874 18.6139 12.2402 20.0223C12.0849 20.0749 11.9168 20.0749 11.7615 20.0223C7.61335 18.6139 4.49963 15.1679 4.49963 10.4995V8.43945C4.49963 6.77333 3.79963 5.33583 2.79963 4.15583C2.66174 3.99063 2.57788 3.78618 2.55975 3.57077C2.54163 3.35536 2.59006 3.13955 2.69849 2.95319C2.80693 2.76683 2.97005 2.61871 3.16736 2.52856C3.36466 2.43841 3.58625 2.41097 3.80052 2.45084L4.08713 2.50318C6.6203 2.95479 9.22624 2.79802 11.6922 2.04677H11.6803ZM12.0009 3.55146C9.39754 4.30021 6.66151 4.47046 3.99963 4.05302V4.06583C5.18963 5.47583 5.99963 7.22583 5.99963 8.43945V10.4995C5.99963 14.4295 8.61182 17.3811 12.0015 18.5195C15.39 17.3811 17.9996 14.4304 17.9996 10.4995V8.43945C17.9996 7.22583 18.8096 5.47583 19.9996 4.06583V4.05302C17.3378 4.47046 14.6017 4.30021 11.9984 3.55146H12.0009Z" fill="currentColor"/>
</svg>
