<svg xmlns="http://www.w3.org/2000/svg" width="48" height="48" viewBox="0 0 48 48" fill="none">
  <path d="M24 1.8C24 0.805886 23.193 -0.00702584 22.2017 0.0674564C18.0883 0.376513 14.1129 1.74178 10.6663 4.04473C6.71954 6.68188 3.64339 10.4302 1.82689 14.8156C0.0103866 19.201 -0.464894 24.0266 0.46115 28.6822C1.3872 33.3377 3.67298 37.6141 7.02943 40.9706C10.3859 44.327 14.6623 46.6128 19.3178 47.5388C23.9734 48.4649 28.799 47.9896 33.1844 46.1731C37.5698 44.3566 41.3181 41.2805 43.9553 37.3337C46.2582 33.8871 47.6235 29.9117 47.9325 25.7984C48.007 24.807 47.1941 24 46.2 24C45.2059 24 44.4082 24.8075 44.3206 25.7977C44.0198 29.1982 42.8692 32.4793 40.962 35.3336C38.7204 38.6884 35.5344 41.3031 31.8067 42.8471C28.0791 44.3912 23.9774 44.7952 20.0202 44.008C16.0629 43.2209 12.428 41.278 9.57502 38.425C6.72203 35.572 4.77912 31.9371 3.99198 27.9798C3.20484 24.0226 3.60883 19.9209 5.15285 16.1933C6.69688 12.4656 9.3116 9.2796 12.6664 7.03802C15.5207 5.13078 18.8018 3.98016 22.2023 3.67935C23.1925 3.59175 24 2.79411 24 1.8Z" fill="currentColor"/>
</svg>
