<svg xmlns="http://www.w3.org/2000/svg" width="15" height="9" viewBox="0 0 15 9" fill="none">
  <path d="M10.5 0H4.5C3.30653 0 2.16193 0.474106 1.31802 1.31802C0.474106 2.16193 0 3.30653 0 4.5C0 5.69347 0.474106 6.83807 1.31802 7.68198C2.16193 8.52589 3.30653 9 4.5 9H10.5C11.6935 9 12.8381 8.52589 13.682 7.68198C14.5259 6.83807 15 5.69347 15 4.5C15 3.30653 14.5259 2.16193 13.682 1.31802C12.8381 0.474106 11.6935 0 10.5 0ZM10.5 8H4.5C3.57174 8 2.6815 7.63125 2.02513 6.97487C1.36875 6.3185 1 5.42826 1 4.5C1 3.57174 1.36875 2.6815 2.02513 2.02513C2.6815 1.36875 3.57174 1 4.5 1H10.5C11.4283 1 12.3185 1.36875 12.9749 2.02513C13.6313 2.6815 14 3.57174 14 4.5C14 5.42826 13.6313 6.3185 12.9749 6.97487C12.3185 7.63125 11.4283 8 10.5 8ZM10.5 2C10.0055 2 9.5222 2.14662 9.11107 2.42133C8.69995 2.69603 8.37952 3.08648 8.1903 3.54329C8.00108 4.00011 7.95157 4.50277 8.04804 4.98773C8.1445 5.47268 8.3826 5.91814 8.73223 6.26777C9.08186 6.6174 9.52732 6.8555 10.0123 6.95196C10.4972 7.04843 10.9999 6.99892 11.4567 6.8097C11.9135 6.62048 12.304 6.30005 12.5787 5.88893C12.8534 5.4778 13 4.99445 13 4.5C13 3.83696 12.7366 3.20107 12.2678 2.73223C11.7989 2.26339 11.163 2 10.5 2ZM10.5 6C10.2033 6 9.91332 5.91203 9.66665 5.7472C9.41997 5.58238 9.22771 5.34811 9.11418 5.07403C9.00065 4.79994 8.97094 4.49834 9.02882 4.20736C9.0867 3.91639 9.22956 3.64912 9.43934 3.43934C9.64912 3.22956 9.91639 3.0867 10.2074 3.02882C10.4983 2.97094 10.7999 3.00065 11.074 3.11418C11.3481 3.22771 11.5824 3.41997 11.7472 3.66664C11.912 3.91332 12 4.20333 12 4.5C12 4.89782 11.842 5.27936 11.5607 5.56066C11.2794 5.84196 10.8978 6 10.5 6Z" fill="currentColor"/>
</svg>
