<svg width="18" height="18" viewBox="0 0 18 18" fill="none" xmlns="http://www.w3.org/2000/svg">
<path d="M16.3125 4.5H11.8125C11.6633 4.5 11.5202 4.55926 11.4148 4.66475C11.3093 4.77024 11.25 4.91332 11.25 5.0625C11.25 5.21168 11.3093 5.35476 11.4148 5.46025C11.5202 5.56574 11.6633 5.625 11.8125 5.625H14.6484L10.125 10.1484L7.58203 7.60547C7.47656 7.5 7.33359 7.44074 7.18453 7.44074C7.03547 7.44074 6.8925 7.5 6.78703 7.60547L1.91016 12.4805C1.85742 12.5332 1.81582 12.5959 1.78769 12.6648C1.75957 12.7336 1.74536 12.8074 1.74582 12.8818C1.74628 12.9562 1.7614 13.0298 1.79037 13.0983C1.81933 13.1668 1.86168 13.229 1.91504 13.281C1.96839 13.3331 2.03164 13.3739 2.10084 13.4012C2.17003 13.4285 2.24397 13.4419 2.31837 13.4406C2.39277 13.4393 2.46617 13.4233 2.53434 13.3936C2.60251 13.3639 2.66428 13.3208 2.71641 13.2668L7.18453 8.80078L9.72656 11.3438C9.83203 11.4492 9.975 11.5085 10.124 11.5085C10.2731 11.5085 10.4161 11.4492 10.5215 11.3438L15.4375 6.42969V9C15.4375 9.14918 15.4968 9.29226 15.6023 9.39775C15.7077 9.50324 15.8508 9.5625 16 9.5625C16.1492 9.5625 16.2923 9.50324 16.3977 9.39775C16.5032 9.29226 16.5625 9.14918 16.5625 9V4.8125C16.5625 4.66332 16.5032 4.52024 16.3977 4.41475C16.2923 4.30926 16.1492 4.25 16 4.25L16.3125 4.5Z" fill="currentColor"/>
</svg>
