<svg width="19" height="18" viewBox="0 0 19 18" fill="none" xmlns="http://www.w3.org/2000/svg">
<path d="M10.1254 11.0868C11.0072 10.5375 11.6861 9.7161 12.0595 8.74667C12.4328 7.77724 12.4803 6.7126 12.1947 5.7138C11.9091 4.715 11.3059 3.83639 10.4765 3.2109C9.64711 2.58541 8.63654 2.24707 7.5977 2.24707C6.55887 2.24707 5.5483 2.58541 4.71887 3.2109C3.88945 3.83639 3.28631 4.715 3.0007 5.7138C2.71509 6.7126 2.76255 7.77724 3.1359 8.74667C3.50925 9.7161 4.18818 10.5375 5.06997 11.0868C3.61801 11.5621 2.31161 12.4501 1.26114 13.7003C1.21192 13.7566 1.17442 13.8221 1.15082 13.893C1.12722 13.964 1.11801 14.0389 1.12371 14.1135C1.12941 14.188 1.14992 14.2607 1.18404 14.3272C1.21815 14.3937 1.26519 14.4528 1.3224 14.5009C1.3796 14.5491 1.44583 14.5853 1.51722 14.6076C1.5886 14.6298 1.6637 14.6376 1.73813 14.6305C1.81256 14.6234 1.88482 14.6015 1.95069 14.5661C2.01656 14.5308 2.07472 14.4826 2.12176 14.4245C3.53364 12.7398 5.47848 11.8124 7.59419 11.8124C9.70989 11.8124 11.6547 12.7398 13.0694 14.4245C13.1655 14.5388 13.303 14.6103 13.4517 14.6232C13.6005 14.6361 13.7482 14.5894 13.8625 14.4934C13.9769 14.3974 14.0483 14.2598 14.0613 14.1111C14.0742 13.9624 14.0275 13.8146 13.9315 13.7003C12.8803 12.4501 11.5739 11.5621 10.1254 11.0868ZM3.93794 7.03113C3.93794 6.30799 4.15237 5.6011 4.55412 4.99983C4.95588 4.39856 5.52691 3.92993 6.195 3.6532C6.86309 3.37646 7.59824 3.30406 8.30748 3.44514C9.01673 3.58621 9.66821 3.93444 10.1795 4.44577C10.6909 4.95711 11.0391 5.60859 11.1802 6.31783C11.3213 7.02708 11.2489 7.76223 10.9721 8.43032C10.6954 9.09841 10.2268 9.66944 9.62549 10.0712C9.02422 10.4729 8.31732 10.6874 7.59419 10.6874C6.62483 10.6863 5.6955 10.3007 5.01006 9.61526C4.32462 8.92982 3.93905 8.00049 3.93794 7.03113ZM17.7368 10.0595L17.4091 9.87035C17.4475 9.66684 17.4475 9.45793 17.4091 9.25441L17.7368 9.06527C17.8008 9.02834 17.8568 8.97916 17.9018 8.92055C17.9468 8.86194 17.9798 8.79505 17.9989 8.72368C18.0181 8.65232 18.023 8.57789 18.0133 8.50463C18.0037 8.43138 17.9797 8.36075 17.9428 8.29676C17.9058 8.23277 17.8567 8.17668 17.7981 8.1317C17.7394 8.08671 17.6726 8.05372 17.6012 8.03458C17.5298 8.01545 17.4554 8.01057 17.3821 8.0202C17.3089 8.02984 17.2383 8.05381 17.1743 8.09074L16.8459 8.28059C16.6888 8.14577 16.5081 8.04112 16.3129 7.97191V7.59363C16.3129 7.44445 16.2537 7.30137 16.1482 7.19588C16.0427 7.0904 15.8996 7.03113 15.7504 7.03113C15.6013 7.03113 15.4582 7.0904 15.3527 7.19588C15.2472 7.30137 15.1879 7.44445 15.1879 7.59363V7.97191C14.9928 8.04112 14.8121 8.14577 14.655 8.28059L14.3266 8.09074C14.2626 8.05381 14.192 8.02984 14.1187 8.0202C14.0455 8.01057 13.971 8.01545 13.8997 8.03458C13.8283 8.05372 13.7614 8.08671 13.7028 8.1317C13.6442 8.17668 13.595 8.23277 13.5581 8.29676C13.5212 8.36075 13.4972 8.43138 13.4876 8.50463C13.4779 8.57789 13.4828 8.65232 13.5019 8.72368C13.5211 8.79505 13.5541 8.86194 13.599 8.92055C13.644 8.97916 13.7001 9.02834 13.7641 9.06527L14.0918 9.25441C14.0533 9.45793 14.0533 9.66684 14.0918 9.87035L13.7641 10.0595C13.7001 10.0964 13.644 10.1456 13.599 10.2042C13.5541 10.2628 13.5211 10.3297 13.5019 10.4011C13.4828 10.4724 13.4779 10.5469 13.4876 10.6201C13.4972 10.6934 13.5212 10.764 13.5581 10.828C13.595 10.892 13.6442 10.9481 13.7028 10.9931C13.7614 11.0381 13.8283 11.071 13.8997 11.0902C13.971 11.1093 14.0455 11.1142 14.1187 11.1046C14.192 11.0949 14.2626 11.071 14.3266 11.034L14.655 10.8442C14.8121 10.979 14.9928 11.0836 15.1879 11.1529V11.5311C15.1879 11.6803 15.2472 11.8234 15.3527 11.9289C15.4582 12.0344 15.6013 12.0936 15.7504 12.0936C15.8996 12.0936 16.0427 12.0344 16.1482 11.9289C16.2537 11.8234 16.3129 11.6803 16.3129 11.5311V11.1529C16.5081 11.0836 16.6888 10.979 16.8459 10.8442L17.1743 11.034C17.2597 11.0836 17.3568 11.1096 17.4555 11.1093C17.5794 11.1093 17.6998 11.0685 17.7981 10.9931C17.8964 10.9177 17.967 10.812 17.9991 10.6923C18.0311 10.5727 18.0228 10.4458 17.9754 10.3314C17.9279 10.2169 17.8441 10.1214 17.7368 10.0595ZM15.1879 9.56238C15.1879 9.45113 15.2209 9.34238 15.2827 9.24987C15.3445 9.15737 15.4324 9.08527 15.5352 9.0427C15.638 9.00013 15.7511 8.98899 15.8602 9.01069C15.9693 9.03239 16.0695 9.08597 16.1482 9.16463C16.2269 9.2433 16.2804 9.34353 16.3021 9.45264C16.3238 9.56176 16.3127 9.67486 16.2701 9.77764C16.2275 9.88042 16.1554 9.96828 16.0629 10.0301C15.9704 10.0919 15.8617 10.1249 15.7504 10.1249C15.6013 10.1249 15.4582 10.0656 15.3527 9.96013C15.2472 9.85464 15.1879 9.71157 15.1879 9.56238Z" fill="currentColor"/>
</svg>







