<svg width="18" height="18" viewBox="0 0 18 18" fill="none" xmlns="http://www.w3.org/2000/svg">
<path d="M14.625 2.25C14.9231 2.25006 15.209 2.36843 15.4199 2.5791C15.6309 2.79007 15.75 3.07665 15.75 3.375V14.625C15.75 14.9234 15.6309 15.2099 15.4199 15.4209C15.209 15.6316 14.9231 15.7499 14.625 15.75H3.375C3.07667 15.75 2.79007 15.6318 2.5791 15.4209C2.36812 15.2099 2.25 14.9234 2.25 14.625V3.375C2.25002 3.07665 2.36814 2.79007 2.5791 2.5791C2.79007 2.36821 3.0767 2.25 3.375 2.25H14.625ZM3.375 3.375V14.625H12.375V3.375H3.375ZM13.5 11.8125V14.625H14.625V11.8125H13.5ZM7.875 6.18555C8.32047 6.18559 8.75575 6.31768 9.12598 6.56543C9.49628 6.81326 9.78518 7.16523 9.95508 7.57715C10.125 7.98904 10.168 8.44211 10.0801 8.87891C9.99217 9.31573 9.77694 9.71712 9.46094 10.0312C10.0559 10.4067 10.4879 10.9923 10.6699 11.6719C10.7072 11.8164 10.6852 11.9701 10.6094 12.0986C10.5336 12.227 10.41 12.3201 10.2656 12.3574C10.1211 12.3947 9.96743 12.3727 9.83887 12.2969C9.71041 12.221 9.61735 12.0976 9.58008 11.9531C9.39517 11.2311 8.66171 10.6876 7.875 10.6875C7.08824 10.6875 6.35559 11.2325 6.16992 11.9531C6.13268 12.0974 6.03941 12.221 5.91113 12.2969C5.78263 12.3727 5.62884 12.3946 5.48438 12.3574C5.33985 12.3201 5.21547 12.2272 5.13965 12.0986C5.06384 11.9701 5.04278 11.8164 5.08008 11.6719C5.26258 10.9927 5.69371 10.4071 6.28809 10.0312C5.97209 9.71712 5.75685 9.31572 5.66895 8.87891C5.58107 8.44211 5.62503 7.98903 5.79492 7.57715C5.96478 7.16538 6.25291 6.81323 6.62305 6.56543C6.99335 6.3176 7.42942 6.18555 7.875 6.18555ZM13.5 7.3125V10.6875H14.625V7.3125H13.5ZM8.09473 7.33398C7.8765 7.29058 7.6499 7.31329 7.44434 7.39844C7.2388 7.48358 7.06306 7.62753 6.93945 7.8125C6.81585 7.99749 6.75001 8.21502 6.75 8.4375C6.75 8.73587 6.86812 9.02242 7.0791 9.2334C7.29007 9.44432 7.57667 9.5625 7.875 9.5625C8.09742 9.56245 8.31506 9.49662 8.5 9.37305C8.68492 9.24945 8.82892 9.07365 8.91406 8.86816C8.99921 8.6626 9.02192 8.436 8.97852 8.21777C8.93508 7.99963 8.8272 7.79888 8.66992 7.6416C8.51275 7.48459 8.3126 7.37741 8.09473 7.33398ZM13.5 3.375V6.1875H14.625V3.375H13.5Z" fill="currentColor"/>
</svg>




