<svg width="24" height="24" viewBox="0 0 24 24" fill="none" xmlns="http://www.w3.org/2000/svg">
<path d="M21.2588 6.46911C21.2133 6.35666 21.1412 6.25693 21.0487 6.17846C20.9562 6.09999 20.8461 6.04513 20.7277 6.01859C20.6093 5.99204 20.4863 5.9946 20.3692 6.02604C20.252 6.05748 20.1442 6.11687 20.0551 6.19911L16.2769 9.68567L14.6616 9.3388L14.3147 7.72348L17.8013 3.94536C17.8836 3.85619 17.9429 3.74841 17.9744 3.63126C18.0058 3.5141 18.0084 3.39107 17.9818 3.27271C17.9553 3.15435 17.9004 3.0442 17.822 2.9517C17.7435 2.85919 17.6438 2.7871 17.5313 2.74161C16.5066 2.32708 15.3957 2.17056 14.2963 2.28581C13.1969 2.40106 12.1426 2.78456 11.2261 3.40259C10.3096 4.02063 9.55895 4.8543 9.04003 5.83034C8.52111 6.80639 8.24984 7.89494 8.25006 9.00036C8.24885 9.93381 8.44034 10.8575 8.81256 11.7135L3.16787 16.5941C3.15381 16.6054 3.14068 16.6185 3.12756 16.6307C2.56489 17.1933 2.24878 17.9565 2.24878 18.7522C2.24878 19.1462 2.32639 19.5364 2.47717 19.9004C2.62795 20.2644 2.84895 20.5952 3.12756 20.8738C3.40617 21.1524 3.73692 21.3734 4.10094 21.5242C4.46496 21.675 4.85511 21.7526 5.24912 21.7526C6.04486 21.7526 6.80801 21.4365 7.37068 20.8738C7.38287 20.8616 7.396 20.8475 7.40725 20.8344L12.2869 15.1879C13.3148 15.6391 14.439 15.8268 15.5578 15.734C16.6765 15.6413 17.7545 15.271 18.694 14.6567C19.6336 14.0423 20.4051 13.2034 20.9387 12.2157C21.4723 11.2281 21.7512 10.1229 21.7501 9.00036C21.7515 8.13278 21.5847 7.27316 21.2588 6.46911ZM15.0001 14.2504C14.1123 14.2491 13.2393 14.0234 12.4622 13.5941C12.3117 13.5109 12.1372 13.482 11.9678 13.5123C11.7985 13.5425 11.6447 13.6299 11.5322 13.76L6.29162 19.8294C6.00803 20.0988 5.6304 20.2468 5.23926 20.2418C4.84812 20.2368 4.47441 20.0792 4.1978 19.8026C3.9212 19.526 3.7636 19.1523 3.75859 18.7612C3.75358 18.37 3.90157 17.9924 4.171 17.7088L10.2357 12.4691C10.366 12.3566 10.4536 12.2026 10.4839 12.0331C10.5141 11.8636 10.485 11.6888 10.4016 11.5382C9.92352 10.6735 9.69915 9.69138 9.75431 8.70484C9.80946 7.7183 10.1419 6.76735 10.7134 5.96131C11.2849 5.15528 12.0723 4.52688 12.985 4.14837C13.8977 3.76986 14.8987 3.6566 15.8729 3.82161L12.9479 6.9913C12.8665 7.07958 12.8075 7.18612 12.7758 7.30195C12.7442 7.41778 12.7408 7.53951 12.766 7.65692L13.2966 10.1254C13.327 10.2665 13.3974 10.396 13.4995 10.4981C13.6017 10.6002 13.7311 10.6706 13.8722 10.701L16.3426 11.2316C16.46 11.2568 16.5817 11.2534 16.6975 11.2218C16.8134 11.1901 16.9199 11.1311 17.0082 11.0497L20.1779 8.12473C20.3042 8.87755 20.2651 9.64886 20.0632 10.385C19.8612 11.1212 19.5014 11.8045 19.0086 12.3875C18.5158 12.9705 17.9019 13.4391 17.2097 13.7608C16.5174 14.0825 15.7634 14.2496 15.0001 14.2504Z" fill="currentColor"/>
</svg>


