<svg width="120" height="120" viewBox="0 0 120 120" fill="none" xmlns="http://www.w3.org/2000/svg">
<g id="Empty">
<path d="M59.1353 67.8752L76.0103 84.7502L115.385 67.8752L98.5103 51.0002L59.1353 67.8752Z" fill="#D2D5DB"/>
<path d="M59.1353 67.8752L42.2603 84.7502L2.88525 67.8752L19.7603 51.0002L59.1353 67.8752Z" fill="#D2D5DB"/>
<path fill-rule="evenodd" clip-rule="evenodd" d="M117.232 67.5422C117.258 67.6922 117.266 67.8453 117.256 67.9973C117.261 67.9212 117.261 67.8447 117.257 67.7687L117.232 67.5422Z" fill="#6D7588"/>
<path fill-rule="evenodd" clip-rule="evenodd" d="M80.9396 42.5178L98.8537 50.1955L98.8556 50.1965C98.9325 50.2293 99.0042 50.2734 99.0685 50.3264L99.13 50.382L116.004 67.256L116.046 67.2971C116.125 67.3889 116.186 67.496 116.222 67.6125C116.264 67.749 116.271 67.8942 116.244 68.0344C116.217 68.1746 116.156 68.3069 116.067 68.4182C115.977 68.5292 115.86 68.6168 115.729 68.673L99.3859 75.6828V96.0002C99.3847 96.1637 99.3376 96.3239 99.2501 96.4621C99.1838 96.5666 99.0958 96.6561 98.9933 96.7238L98.8859 96.7844L59.5109 115.534C59.3936 115.59 59.2648 115.619 59.1349 115.619C59.005 115.619 58.8772 115.59 58.7599 115.534L19.3849 96.7844C19.2362 96.7135 19.1098 96.6022 19.0216 96.4631C18.9555 96.3585 18.9122 96.2409 18.8947 96.1193L18.8859 95.9973V75.6828L2.53041 68.6808C2.39911 68.6245 2.28309 68.5363 2.1935 68.425C2.10412 68.3138 2.04275 68.1823 2.01577 68.0422C1.98885 67.902 1.99644 67.7568 2.03823 67.6203C2.08012 67.4839 2.15516 67.359 2.256 67.258L19.131 50.383C19.2096 50.3045 19.3034 50.2412 19.4054 50.1974L37.3214 42.5187L38.9306 41.8301L44.2271 39.5633L45.8078 38.8869L58.7912 33.3215L58.7902 33.3205C58.8989 33.274 59.0167 33.2512 59.1349 33.2512C59.2528 33.2512 59.3702 33.2752 59.4787 33.3215L72.464 38.8849L80.9396 42.5178ZM97.6359 95.4553L60.0109 113.363V69.9904L75.3908 85.3703L75.4552 85.4279C75.6109 85.5547 75.8064 85.6254 76.0089 85.6252H76.0128C76.1289 85.6254 76.2442 85.6009 76.3507 85.5549L76.3537 85.5539L97.6359 76.4328V95.4553ZM42.2609 85.6252C42.4927 85.625 42.7151 85.5322 42.879 85.3683L58.2609 69.9865V113.36L20.6359 95.4484V76.4328L41.9162 85.5539L41.9181 85.5549C42.0255 85.6012 42.142 85.6254 42.2589 85.6252H42.2609ZM4.41909 67.5803L19.4835 52.5168L19.9621 52.0373L20.5841 52.3049L57.6027 68.1691L42.0597 83.7121L4.41909 67.5803ZM60.6671 68.1691L97.6876 52.3049L98.3097 52.0373L98.7882 52.5168L113.853 67.5803L76.2101 83.7121L60.6671 68.1691ZM58.2609 66.549L21.9816 51.0002L38.0089 44.131L39.6206 43.4404L44.9172 41.1706L46.4953 40.4943L58.2609 35.4514V48.2482V57.4787V66.549ZM60.0109 66.549V57.4787V48.256V35.4582L71.7765 40.5012L80.2628 44.131L96.2882 51.0002L60.0109 66.549Z" fill="#6D7588"/>
<path d="M102.262 27.5C102.259 24.9989 101.283 22.5828 99.5124 20.6956C97.7422 18.8085 95.2968 17.5771 92.6257 17.2278C92.8169 16.6291 92.9187 16.0089 92.9282 15.3845C92.9282 13.5484 92.1415 11.7875 90.7412 10.4891C89.3409 9.19079 87.4416 8.46139 85.4613 8.46139C84.9313 8.46321 84.4034 8.52128 83.8877 8.63447C83.5923 8.68667 83.2875 8.66726 83.0026 8.57811C82.7177 8.48896 82.4625 8.33309 82.2617 8.12562C81.2203 7.13629 79.976 6.3501 78.602 5.81331C77.228 5.27653 75.752 5 74.261 5C72.77 5 71.2941 5.27653 69.92 5.81331C68.546 6.3501 67.3017 7.13629 66.2603 8.12562C66.0595 8.33309 65.8043 8.48896 65.5194 8.57811C65.2346 8.66726 64.9297 8.68667 64.6344 8.63447C64.1187 8.52128 63.5907 8.46321 63.0607 8.46139C61.0804 8.46139 59.1812 9.19079 57.7809 10.4891C56.3806 11.7875 55.5939 13.5484 55.5939 15.3845C55.6034 16.0089 55.7051 16.6291 55.8963 17.2278C53.2243 17.575 50.7777 18.8058 49.0073 20.6935C47.2368 22.5811 46.2617 24.9984 46.2617 27.5C46.2617 30.0016 47.2368 32.4189 49.0073 34.3065C50.7777 36.1942 53.2243 37.425 55.8963 37.7722C55.7051 38.3709 55.6034 38.9911 55.5939 39.6155C55.5939 41.4516 56.3806 43.2125 57.7809 44.5109C59.1812 45.8092 61.0804 46.5386 63.0607 46.5386C63.5907 46.5368 64.1187 46.4787 64.6344 46.3655C64.9297 46.3133 65.2346 46.3327 65.5194 46.4219C65.8043 46.511 66.0595 46.6669 66.2603 46.8744C67.3017 47.8637 68.546 48.6499 69.92 49.1867C71.2941 49.7235 72.77 50 74.261 50C75.752 50 77.228 49.7235 78.602 49.1867C79.976 48.6499 81.2203 47.8637 82.2617 46.8744C82.4625 46.6669 82.7177 46.511 83.0026 46.4219C83.2875 46.3327 83.5923 46.3133 83.8877 46.3655C84.4034 46.4787 84.9313 46.5368 85.4613 46.5386C87.4416 46.5386 89.3409 45.8092 90.7412 44.5109C92.1415 43.2125 92.9282 41.4516 92.9282 39.6155C92.9187 38.9911 92.8169 38.3709 92.6257 37.7722C95.2968 37.4229 97.7422 36.1915 99.5124 34.3043C101.283 32.4172 102.259 30.0011 102.262 27.5Z" fill="#D2D5DB"/>
<path d="M46.2617 27.5C46.2617 24.9985 47.2365 22.581 49.0068 20.6934C50.7773 18.8057 53.2245 17.5747 55.8965 17.2275C55.7054 16.6289 55.6033 16.009 55.5938 15.3848C55.5938 13.6635 56.2853 12.0082 57.5254 10.7383L57.7812 10.4893C59.1815 9.19104 61.0803 8.46098 63.0605 8.46094C63.5905 8.46275 64.1191 8.52157 64.6348 8.63477C64.8562 8.67385 65.083 8.67248 65.3027 8.63184L65.5195 8.57812C65.733 8.51129 65.9299 8.40692 66.0996 8.27148L66.2607 8.12598C67.172 7.26033 68.2382 6.54997 69.4111 6.02637L69.9199 5.81348C71.2939 5.27673 72.7698 5.00003 74.2607 5C75.7516 5 77.2276 5.27677 78.6016 5.81348C79.9756 6.35026 81.2203 7.13664 82.2617 8.12598C82.4625 8.33336 82.7181 8.489 83.0029 8.57812C83.2165 8.64494 83.4414 8.67256 83.665 8.66016L83.8877 8.63477C84.4033 8.5216 84.9311 8.46278 85.4609 8.46094C87.4413 8.46094 89.3409 9.19092 90.7412 10.4893C92.1415 11.7876 92.9277 13.5487 92.9277 15.3848C92.9182 16.0089 92.8171 16.629 92.626 17.2275C95.2969 17.5769 97.7425 18.8082 99.5127 20.6953C101.283 22.5825 102.259 24.9989 102.262 27.5L102.25 27.9678C102.134 30.301 101.172 32.5355 99.5127 34.3047L99.1729 34.6504C97.4358 36.3419 95.1301 37.4449 92.626 37.7725C92.8171 38.371 92.9182 38.9911 92.9277 39.6152C92.9277 41.4513 92.1415 43.2124 90.7412 44.5107L90.4727 44.748C89.103 45.8978 87.3173 46.5391 85.4609 46.5391L85.0645 46.5264C84.6682 46.504 84.2745 46.4501 83.8877 46.3652C83.5925 46.3131 83.2877 46.3328 83.0029 46.4219C82.7181 46.511 82.4625 46.6666 82.2617 46.874C81.2203 47.8634 79.9756 48.6497 78.6016 49.1865C77.2276 49.7232 75.7516 50 74.2607 50V48C75.5054 48 76.7346 47.7693 77.874 47.3242C78.871 46.9347 79.778 46.3889 80.5576 45.7188L80.8838 45.4248C81.3143 44.9997 81.8388 44.69 82.4053 44.5127L82.6289 44.4502C83.0794 44.3386 83.5468 44.3091 84.0068 44.3623L84.2354 44.3965L84.2764 44.4033L84.3164 44.4121C84.6916 44.4945 85.0767 44.5365 85.4639 44.5381C86.9595 44.5375 88.3668 43.9851 89.3818 43.0439C90.3904 42.1087 90.9249 40.8744 90.9268 39.6221C90.9181 39.2034 90.85 38.7861 90.7207 38.3809L89.9922 36.0996L92.3662 35.7891C94.5989 35.4971 96.6139 34.4705 98.0537 32.9355C99.4888 31.4055 100.258 29.4749 100.262 27.502C100.259 25.5277 99.4898 23.5955 98.0537 22.0645C96.6139 20.5295 94.5989 19.5029 92.3662 19.2109L89.9922 18.9004L90.7207 16.6191C90.8501 16.2136 90.9182 15.796 90.9268 15.377C90.9246 14.1249 90.3901 12.8911 89.3818 11.9561C88.3668 11.0149 86.9596 10.4616 85.4639 10.4609C85.0767 10.4626 84.6916 10.5055 84.3164 10.5879L84.2764 10.5967L84.2354 10.6035C83.6263 10.7111 82.9972 10.6725 82.4053 10.4873C81.8386 10.31 81.3144 9.99961 80.8838 9.57422V9.5752C80.0354 8.76932 79.0132 8.12082 77.874 7.67578C76.7346 7.23068 75.5054 7 74.2607 7C73.0161 7.00003 71.7869 7.23063 70.6475 7.67578C69.5082 8.12087 68.4861 8.76923 67.6377 9.5752L67.6367 9.57422C67.2063 9.99916 66.6834 10.3101 66.1172 10.4873C65.5251 10.6726 64.8954 10.7112 64.2861 10.6035L64.2461 10.5967L64.2061 10.5879C63.8304 10.5054 63.4443 10.4625 63.0566 10.4609C61.5615 10.4619 60.1554 11.0152 59.1406 11.9561C58.1354 12.8882 57.5992 14.1171 57.5938 15.3652C57.6013 15.7882 57.6711 16.2098 57.8018 16.6191L58.5303 18.9023L56.1543 19.2109C53.9214 19.5011 51.9054 20.5266 50.4658 22.0615C49.0298 23.5926 48.2617 25.5258 48.2617 27.5C48.2617 29.4742 49.0298 31.4074 50.4658 32.9385C51.9054 34.4734 53.9214 35.4989 56.1543 35.7891L58.5303 36.0977L57.8018 38.3809C57.6712 38.7899 57.6014 39.2111 57.5938 39.6338C57.5989 40.8822 58.1351 42.1116 59.1406 43.0439C60.1554 43.9848 61.5615 44.5371 63.0566 44.5381C63.4443 44.5366 63.8304 44.4946 64.2061 44.4121L64.2461 44.4033L64.2861 44.3965C64.8193 44.3022 65.368 44.3199 65.8936 44.4502L66.1172 44.5127L66.3369 44.5898C66.8187 44.7735 67.2627 45.0557 67.6367 45.4248H67.6377C68.4861 46.2308 69.5082 46.8791 70.6475 47.3242C71.7869 47.7694 73.0161 48 74.2607 48V50L73.7031 49.9873C72.4028 49.9271 71.1223 49.6563 69.9199 49.1865C68.7176 48.7168 67.6148 48.056 66.6602 47.2354L66.2607 46.874C66.06 46.6666 65.8044 46.511 65.5195 46.4219C65.2348 46.3328 64.93 46.3131 64.6348 46.3652C64.1191 46.4784 63.5905 46.5373 63.0605 46.5391L62.6904 46.5303C60.968 46.451 59.3272 45.8213 58.0488 44.748L57.7812 44.5107C56.3809 43.2124 55.5938 41.4514 55.5938 39.6152C55.6033 38.991 55.7054 38.3711 55.8965 37.7725C53.3914 37.4469 51.0841 36.3444 49.3467 34.6523L49.0068 34.3066C47.3471 32.537 46.387 30.3015 46.2734 27.9678L46.2617 27.5Z" fill="#6D7588"/>
<path d="M63.6357 30.5002C65.0165 30.5002 66.1357 29.3809 66.1357 28.0002C66.1357 26.6195 65.0165 25.5002 63.6357 25.5002C62.255 25.5002 61.1357 26.6195 61.1357 28.0002C61.1357 29.3809 62.255 30.5002 63.6357 30.5002Z" fill="#6D7588"/>
<path d="M74.6357 30.5002C76.0165 30.5002 77.1357 29.3809 77.1357 28.0002C77.1357 26.6195 76.0165 25.5002 74.6357 25.5002C73.255 25.5002 72.1357 26.6195 72.1357 28.0002C72.1357 29.3809 73.255 30.5002 74.6357 30.5002Z" fill="#6D7588"/>
<path d="M85.6357 30.5002C87.0165 30.5002 88.1357 29.3809 88.1357 28.0002C88.1357 26.6195 87.0165 25.5002 85.6357 25.5002C84.255 25.5002 83.1357 26.6195 83.1357 28.0002C83.1357 29.3809 84.255 30.5002 85.6357 30.5002Z" fill="#6D7588"/>
</g>
</svg>
