<svg width="120" height="120" viewBox="0 0 120 120" fill="none" xmlns="http://www.w3.org/2000/svg">
<path d="M59.9995 69.375L76.8745 86.25L116.25 69.375L99.3745 52.5L59.9995 69.375Z" fill="#D2D5DB"/>
<path d="M59.9995 69.375L43.1245 86.25L3.74951 69.375L20.6245 52.5L59.9995 69.375Z" fill="#D2D5DB"/>
<path d="M59.9995 13.125C55.5494 13.125 51.1993 14.4446 47.4992 16.9169C43.7991 19.3893 40.9152 22.9033 39.2122 27.0146C37.5093 31.126 37.0637 35.65 37.9319 40.0145C38.8 44.3791 40.9429 48.3882 44.0896 51.5349C47.2363 54.6816 51.2454 56.8245 55.61 57.6927C59.9746 58.5608 64.4986 58.1153 68.6099 56.4123C72.7212 54.7093 76.2353 51.8254 78.7076 48.1253C81.1799 44.4252 82.4995 40.0751 82.4995 35.625C82.4995 29.6576 80.129 23.9347 75.9094 19.7151C71.6899 15.4955 65.9669 13.125 59.9995 13.125ZM59.9995 50.625C57.0328 50.625 54.1327 49.7453 51.666 48.097C49.1992 46.4488 47.2766 44.1061 46.1413 41.3653C45.006 38.6244 44.709 35.6084 45.2877 32.6986C45.8665 29.7889 47.2951 27.1162 49.3929 25.0184C51.4907 22.9206 54.1635 21.492 57.0732 20.9132C59.9829 20.3344 62.9989 20.6315 65.7398 21.7668C68.4807 22.9021 70.8233 24.8247 72.4716 27.2914C74.1198 29.7582 74.9995 32.6583 74.9995 35.625C74.9995 39.6032 73.4192 43.4186 70.6061 46.2316C67.7931 49.0446 63.9778 50.625 59.9995 50.625Z" fill="#D2D5DB"/>
<path d="M33.4274 2.87634C34.2386 2.87636 35.0422 3.03665 35.7917 3.34705C36.541 3.65748 37.222 4.1124 37.7956 4.68591L48.4304 15.3187L49.0827 14.972C53.2164 12.7819 57.9132 11.8846 62.5632 12.3959C67.2132 12.9072 71.6028 14.8041 75.1618 17.8402C78.7207 20.8763 81.2854 24.9119 82.5231 29.4232C83.7608 33.9345 83.6146 38.7139 82.1032 43.141L81.8034 44.0179L99.7175 51.6957L99.7194 51.6967C99.7963 51.7295 99.868 51.7735 99.9323 51.8265L99.9938 51.8822L116.868 68.7562L116.91 68.7972C116.989 68.8891 117.05 68.9961 117.086 69.1127C117.127 69.2493 117.135 69.3942 117.108 69.5345C117.081 69.6749 117.02 69.807 116.93 69.9183C116.841 70.0295 116.724 70.117 116.592 70.1732L100.25 77.183V97.5004C100.248 97.664 100.202 97.824 100.114 97.9623C100.048 98.0669 99.9597 98.1562 99.8571 98.224L99.7497 98.2845L60.3747 117.035C60.2573 117.09 60.1287 117.12 59.9987 117.12C59.8688 117.119 59.741 117.09 59.6237 117.035L20.2487 98.2845C20.1 98.2137 19.9736 98.1024 19.8854 97.9633C19.8192 97.8587 19.776 97.7411 19.7585 97.6195L19.7497 97.4974V77.183L3.39422 70.181C3.26292 70.1247 3.1469 70.0364 3.05731 69.9252C2.96786 69.8139 2.90657 69.6825 2.87958 69.5424C2.85259 69.4021 2.86022 69.257 2.90204 69.1205C2.94391 68.9839 3.01888 68.8592 3.11981 68.7582L19.9948 51.8832C20.0734 51.8046 20.1671 51.7415 20.2692 51.6976L38.1852 44.0189L37.8825 43.141C36.8467 40.1334 36.4423 36.9438 36.694 33.7728C36.9458 30.602 37.8481 27.5167 39.3454 24.7103L39.695 24.057L29.0583 13.4232C27.8998 12.2646 27.2497 10.6925 27.2497 9.05408C27.2498 7.41586 27.9 5.84441 29.0583 4.68591C30.2168 3.52737 31.789 2.87641 33.4274 2.87634ZM60.8747 114.864L98.4997 96.9554V77.933L77.2175 87.0541L77.2145 87.0551C77.1079 87.1011 76.9928 87.1256 76.8766 87.1254H76.8727C76.6702 87.1256 76.4747 87.0549 76.319 86.9281L76.2546 86.8705L60.8747 71.4906V114.864ZM43.7429 86.8685C43.5789 87.0324 43.3566 87.1253 43.1247 87.1254H43.1227C43.0058 87.1256 42.8893 87.1014 42.7819 87.0551L42.78 87.0541L21.4997 77.933V96.9486L59.1247 114.86V71.4867L43.7429 86.8685ZM20.3473 54.017L5.2829 69.0804L42.9235 85.2123L58.4665 69.6693L21.4479 53.8051L20.8259 53.5375L20.3473 54.017ZM98.5515 53.8051L61.5309 69.6693L77.0739 85.2123L114.716 69.0804L99.652 54.017L99.1735 53.5375L98.5515 53.8051ZM118.095 69.0424C118.122 69.1925 118.13 69.3453 118.12 69.4974C118.125 69.4213 118.125 69.345 118.121 69.2689L118.095 69.0424ZM22.8454 52.5004L59.1247 68.0492V58.9789L58.2018 58.9076C54.2549 58.6006 50.4497 57.2963 47.1442 55.1176C43.8388 52.9388 41.1406 49.9559 39.3024 46.4496L38.8727 45.6312L22.8454 52.5004ZM80.697 46.4496C78.8584 49.9558 76.1598 52.9388 72.8542 55.1176C69.5488 57.2961 65.7444 58.6004 61.7975 58.9076L60.8747 58.9789V68.0492L97.152 52.5004L81.1266 45.6312L80.697 46.4496ZM59.9997 14.0004C55.7228 14.0004 51.5421 15.2688 47.986 17.6449C44.43 20.021 41.6579 23.3978 40.0212 27.349C38.3845 31.3004 37.9563 35.6493 38.7907 39.8441C39.6251 44.0387 41.6845 47.8922 44.7087 50.9164C47.7329 53.9405 51.5863 55.9999 55.7809 56.8344C59.9756 57.6687 64.3237 57.2405 68.2751 55.6039C72.2265 53.9672 75.604 51.1952 77.9802 47.639C80.3563 44.0829 81.6246 39.9022 81.6247 35.6254V35.6234C81.6178 29.8907 79.3375 24.3949 75.2839 20.3412C71.2301 16.2875 65.7325 14.0071 59.9997 14.0004ZM33.4274 4.62537C32.5517 4.6257 31.6946 4.88478 30.9665 5.37146C30.2385 5.85818 29.6707 6.55064 29.3356 7.35974C29.0007 8.16879 28.9129 9.05949 29.0837 9.91833C29.2545 10.7772 29.6765 11.5665 30.2956 12.1859L40.6442 22.5326L41.3366 21.6127C42.6616 19.8525 44.2268 18.2863 45.987 16.9613L46.9069 16.2689L36.5583 5.92322L36.5573 5.92126L36.3981 5.7699C35.5858 5.03754 34.5292 4.6287 33.4304 4.62537H33.4274Z" fill="#6D7588"/>
<path d="M53.9243 20.9584C56.8249 19.7569 60.0169 19.4426 63.0962 20.055C66.1756 20.6676 69.005 22.1796 71.2251 24.3998C73.4452 26.6199 74.9573 29.4493 75.5698 32.5287C76.1822 35.6079 75.8679 38.8 74.6665 41.7006C73.465 44.6012 71.4294 47.0803 68.8188 48.8246C66.2083 50.5689 63.1392 51.4994 59.9995 51.4994C55.7908 51.4944 51.7558 49.821 48.7798 46.8451C45.8038 43.8691 44.1296 39.834 44.1245 35.6254C44.1245 32.4857 45.056 29.4166 46.8003 26.806C48.5446 24.1954 51.0236 22.1599 53.9243 20.9584ZM60.8745 49.7562L62.0181 49.5902C64.0702 49.2926 66.0317 48.5466 67.7632 47.4056C69.4946 46.2646 70.9537 44.756 72.0366 42.9877L72.6401 42.0013L60.8745 36.9584V49.7562ZM47.3589 41.9945L47.9624 42.9798C49.0453 44.7482 50.5044 46.2568 52.2358 47.3978C53.9673 48.5388 55.9288 49.2848 57.981 49.5824L59.1245 49.7484V36.9515L47.3589 41.9945ZM59.9956 21.5004C57.8296 21.4937 55.6909 21.987 53.7466 22.9418C51.8002 23.8976 50.1004 25.2904 48.7808 27.0111C47.4612 28.7318 46.5575 30.735 46.1392 32.8627C45.7209 34.9901 45.7989 37.1857 46.3687 39.2777L46.6714 40.3871L59.6548 34.8216L59.6538 34.8207C59.7626 34.7741 59.8802 34.7513 59.9985 34.7513C60.1166 34.7513 60.2337 34.7753 60.3423 34.8216L73.3276 40.3851L73.6304 39.2757C74.1998 37.1837 74.2783 34.988 73.8599 32.8607C73.4413 30.7332 72.5369 28.7306 71.2173 27.0101C69.8976 25.2896 68.1978 23.8975 66.2515 22.9418C64.3051 21.986 62.1639 21.4926 59.9956 21.5004Z" fill="#6D7588"/>
</svg>
